<svg width="386" height="300" viewBox="0 0 386 300" fill="none" xmlns="http://www.w3.org/2000/svg">
<path d="M176.42 280.891C176.43 280.341 176.89 279.901 177.44 279.921C177.99 279.931 178.43 280.391 178.42 280.941C178.4 281.491 177.95 281.931 177.39 281.921C176.84 281.911 176.4 281.451 176.42 280.891ZM183.4 280.941C183.38 280.391 183.82 279.931 184.37 279.921C184.92 279.901 185.38 280.341 185.4 280.891C185.41 281.441 184.98 281.901 184.42 281.911C184.42 281.911 184.41 281.911 184.4 281.911C183.86 281.911 183.41 281.481 183.4 280.941ZM170.38 281.581C169.82 281.541 169.41 281.061 169.45 280.511C169.49 279.961 169.97 279.541 170.52 279.581C171.07 279.621 171.48 280.101 171.44 280.651C171.41 281.181 170.97 281.581 170.45 281.581C170.42 281.581 170.4 281.581 170.38 281.581ZM190.37 280.651C190.33 280.091 190.74 279.611 191.29 279.571C191.84 279.531 192.32 279.941 192.37 280.491C192.41 281.051 191.99 281.531 191.44 281.571C191.42 281.571 191.39 281.571 191.37 281.571C190.85 281.571 190.41 281.171 190.37 280.651ZM163.38 280.891C162.83 280.821 162.44 280.321 162.51 279.771C162.58 279.231 163.08 278.841 163.62 278.901H163.63C164.17 278.971 164.56 279.471 164.5 280.021C164.43 280.531 164 280.901 163.5 280.901C163.46 280.901 163.42 280.891 163.38 280.891ZM197.32 280.001C197.25 279.461 197.64 278.961 198.19 278.891C198.74 278.821 199.24 279.211 199.31 279.761C199.37 280.311 198.98 280.801 198.43 280.871C198.43 280.871 198.43 280.871 198.44 280.871C198.39 280.881 198.35 280.881 198.31 280.881C197.81 280.881 197.38 280.511 197.32 280.001ZM156.43 279.851C155.88 279.761 155.52 279.241 155.61 278.701C155.71 278.151 156.23 277.791 156.77 277.881C157.32 277.981 157.68 278.501 157.58 279.041C157.5 279.531 157.08 279.871 156.6 279.871C156.54 279.871 156.49 279.861 156.43 279.851ZM204.23 279.021C204.13 278.481 204.5 277.961 205.04 277.861C205.58 277.771 206.1 278.131 206.2 278.671C206.29 279.221 205.93 279.731 205.39 279.831C205.33 279.841 205.27 279.851 205.22 279.851C204.74 279.851 204.31 279.511 204.23 279.021ZM149.54 278.471C149 278.351 148.66 277.821 148.78 277.281C148.9 276.741 149.44 276.401 149.98 276.521C150.52 276.641 150.85 277.181 150.73 277.721C150.63 278.181 150.21 278.501 149.76 278.501C149.69 278.501 149.61 278.491 149.54 278.471ZM211.08 277.691C210.96 277.151 211.29 276.611 211.83 276.491C212.37 276.371 212.91 276.711 213.03 277.251C213.15 277.781 212.82 278.321 212.28 278.441C212.2 278.461 212.13 278.471 212.06 278.471C211.6 278.471 211.18 278.151 211.08 277.691ZM142.72 276.751C142.19 276.601 141.88 276.051 142.03 275.511C142.18 274.981 142.73 274.671 143.26 274.821C143.79 274.971 144.1 275.521 143.95 276.051C143.83 276.501 143.43 276.781 142.99 276.781C142.9 276.781 142.81 276.771 142.72 276.751ZM217.85 276.021C217.71 275.481 218.01 274.931 218.55 274.781C219.08 274.631 219.63 274.941 219.78 275.481C219.93 276.011 219.62 276.561 219.09 276.711C219 276.741 218.91 276.751 218.82 276.751C218.38 276.751 217.98 276.461 217.85 276.021ZM136 274.681C135.48 274.511 135.2 273.941 135.37 273.421C135.55 272.891 136.11 272.611 136.64 272.781C137.16 272.961 137.44 273.521 137.27 274.051C137.13 274.471 136.74 274.731 136.32 274.731C136.21 274.731 136.11 274.721 136 274.681ZM224.54 274.011C224.36 273.481 224.64 272.921 225.17 272.741C225.69 272.571 226.25 272.851 226.43 273.371C226.61 273.891 226.33 274.461 225.8 274.641C225.8 274.641 225.8 274.641 225.81 274.641C225.7 274.671 225.59 274.691 225.49 274.691C225.07 274.691 224.68 274.431 224.54 274.011ZM129.38 272.271C128.87 272.071 128.62 271.491 128.82 270.981C129.02 270.471 129.6 270.211 130.11 270.411C130.63 270.611 130.88 271.191 130.68 271.711C130.53 272.101 130.15 272.341 129.75 272.341C129.63 272.341 129.5 272.321 129.38 272.271ZM231.11 271.661C230.91 271.151 231.16 270.571 231.68 270.371H231.67C232.19 270.171 232.77 270.421 232.97 270.941C233.17 271.451 232.92 272.031 232.41 272.231C232.29 272.281 232.16 272.301 232.04 272.301C231.64 272.301 231.26 272.061 231.11 271.661ZM122.89 269.541C122.39 269.311 122.16 268.721 122.39 268.221C122.62 267.721 123.21 267.491 123.71 267.721H123.72C124.22 267.941 124.44 268.541 124.22 269.041C124.05 269.411 123.68 269.631 123.3 269.631C123.17 269.631 123.03 269.601 122.89 269.541ZM237.55 269.001C237.32 268.501 237.54 267.911 238.05 267.681C238.55 267.451 239.14 267.681 239.37 268.181C239.6 268.681 239.37 269.271 238.87 269.501C238.74 269.561 238.6 269.591 238.46 269.591C238.08 269.591 237.71 269.371 237.55 269.001ZM116.55 266.481C116.06 266.231 115.87 265.631 116.12 265.141C116.37 264.641 116.97 264.451 117.46 264.701C117.96 264.951 118.15 265.561 117.9 266.051C117.72 266.401 117.37 266.591 117.01 266.591C116.85 266.591 116.7 266.561 116.55 266.481ZM243.84 266.021C243.59 265.531 243.78 264.931 244.27 264.671C244.77 264.421 245.37 264.611 245.62 265.111C245.88 265.601 245.68 266.201 245.19 266.451C245.04 266.531 244.89 266.561 244.73 266.561C244.37 266.561 244.02 266.371 243.84 266.021ZM110.37 263.121C109.9 262.841 109.73 262.231 110.01 261.751C110.28 261.271 110.89 261.111 111.37 261.381C111.85 261.661 112.01 262.271 111.74 262.751C111.55 263.071 111.22 263.251 110.87 263.251C110.7 263.251 110.53 263.211 110.37 263.121ZM104.37 259.441C103.91 259.141 103.77 258.521 104.07 258.061C104.37 257.601 104.99 257.461 105.46 257.761C105.92 258.061 106.05 258.681 105.75 259.151C105.56 259.441 105.24 259.601 104.91 259.601C104.72 259.601 104.54 259.551 104.37 259.441ZM98.5601 255.481C98.1101 255.151 98.0101 254.531 98.3301 254.081C98.6501 253.631 99.28 253.531 99.73 253.851C100.17 254.181 100.28 254.801 99.9602 255.251C99.7602 255.521 99.4501 255.661 99.1401 255.661C98.9401 255.661 98.7401 255.601 98.5601 255.481ZM306.56 202.631C306.07 202.391 305.86 201.791 306.1 201.301C306.34 200.801 306.93 200.591 307.43 200.831C307.93 201.071 308.14 201.671 307.9 202.171C307.73 202.521 307.37 202.731 306.99 202.731C306.85 202.731 306.7 202.701 306.56 202.631ZM50.9202 195.851C50.7102 195.341 50.9402 194.751 51.4502 194.541C51.9602 194.321 52.55 194.561 52.76 195.071C52.98 195.571 52.74 196.161 52.23 196.381C52.11 196.431 51.9701 196.461 51.8401 196.461C51.4501 196.461 51.0802 196.231 50.9202 195.851ZM309.49 196.281C308.98 196.071 308.74 195.481 308.96 194.971C309.17 194.461 309.76 194.221 310.27 194.441C310.77 194.651 311.02 195.241 310.8 195.751C310.64 196.131 310.27 196.361 309.88 196.361C309.75 196.361 309.62 196.331 309.49 196.281ZM48.3501 189.321C48.1601 188.801 48.4302 188.231 48.9502 188.041C49.4702 187.851 50.04 188.121 50.23 188.631C50.42 189.151 50.1501 189.731 49.6301 189.921C49.5201 189.961 49.4 189.981 49.29 189.981C48.88 189.981 48.5001 189.731 48.3501 189.321ZM312.09 189.791C311.57 189.601 311.31 189.031 311.49 188.511C311.68 187.991 312.25 187.721 312.78 187.911C313.29 188.101 313.56 188.671 313.38 189.191C313.38 189.191 313.38 189.191 313.37 189.191C313.23 189.601 312.84 189.851 312.44 189.851C312.32 189.851 312.21 189.831 312.09 189.791ZM46.1101 182.661C45.9401 182.131 46.24 181.571 46.77 181.411C47.29 181.241 47.85 181.541 48.02 182.071C48.18 182.601 47.8801 183.161 47.3601 183.321C47.2601 183.351 47.1601 183.361 47.0601 183.361C46.6301 183.361 46.2401 183.091 46.1101 182.661ZM314.37 183.171C313.84 183.011 313.54 182.451 313.71 181.921H313.7C313.87 181.401 314.43 181.101 314.95 181.261C315.48 181.421 315.78 181.981 315.62 182.511C315.62 182.511 315.62 182.511 315.61 182.511C315.48 182.941 315.09 183.221 314.66 183.221C314.56 183.221 314.46 183.201 314.37 183.171ZM44.2002 175.891C44.0702 175.361 44.3902 174.821 44.9202 174.681C45.4602 174.541 46.0001 174.871 46.1401 175.401C46.2801 175.931 45.9502 176.481 45.4202 176.621C45.3302 176.641 45.2502 176.651 45.1702 176.651C44.7202 176.651 44.3202 176.351 44.2002 175.891ZM316.3 176.471C315.76 176.331 315.44 175.791 315.58 175.251C315.71 174.721 316.26 174.391 316.79 174.531C317.33 174.661 317.65 175.211 317.51 175.741C317.51 175.741 317.51 175.741 317.52 175.741C317.4 176.201 316.99 176.501 316.55 176.501C316.47 176.501 316.38 176.491 316.3 176.471ZM42.6401 169.041C42.5301 168.501 42.8802 167.971 43.4202 167.861C43.9602 167.751 44.4901 168.101 44.6001 168.651C44.7101 169.191 44.3601 169.711 43.8101 169.821C43.7501 169.841 43.6801 169.851 43.6201 169.851C43.1501 169.851 42.7301 169.521 42.6401 169.041ZM317.9 169.681C317.35 169.571 317 169.041 317.11 168.501C317.22 167.961 317.75 167.601 318.29 167.711C318.83 167.821 319.18 168.351 319.07 168.891C318.98 169.371 318.56 169.691 318.09 169.691C318.03 169.691 317.96 169.691 317.9 169.681ZM41.4202 162.121C41.3302 161.571 41.71 161.061 42.26 160.981C42.8 160.901 43.3101 161.281 43.3901 161.821C43.4701 162.371 43.1 162.881 42.55 162.961C42.5 162.971 42.4501 162.971 42.4001 162.971C41.9201 162.971 41.4902 162.611 41.4202 162.121ZM319.15 162.811C318.6 162.731 318.23 162.221 318.31 161.671C318.39 161.131 318.9 160.751 319.44 160.831C319.99 160.911 320.37 161.421 320.29 161.971C320.21 162.471 319.78 162.821 319.29 162.821C319.25 162.821 319.2 162.821 319.15 162.811ZM40.54 155.151C40.49 154.601 40.8902 154.111 41.4402 154.051C41.9902 154.001 42.48 154.401 42.53 154.951C42.59 155.501 42.1901 155.991 41.6401 156.041C41.6101 156.051 41.57 156.051 41.54 156.051C41.03 156.051 40.6 155.661 40.54 155.151ZM320.06 155.891C319.51 155.831 319.11 155.351 319.16 154.801C319.21 154.251 319.7 153.851 320.25 153.901C320.8 153.951 321.2 154.441 321.15 154.991C321.1 155.511 320.66 155.901 320.15 155.901C320.12 155.901 320.09 155.891 320.06 155.891ZM40.02 148.141C39.99 147.591 40.42 147.121 40.97 147.091C41.52 147.061 41.99 147.491 42.02 148.041C42.04 148.591 41.6201 149.061 41.0701 149.091C41.0501 149.091 41.04 149.091 41.02 149.091C40.49 149.091 40.04 148.671 40.02 148.141ZM320.62 148.931C320.07 148.911 319.64 148.441 319.67 147.891C319.7 147.341 320.17 146.911 320.72 146.941C321.27 146.961 321.69 147.431 321.67 147.981C321.64 148.521 321.2 148.941 320.67 148.941C320.65 148.941 320.64 148.931 320.62 148.931ZM39.8401 141.111C39.8401 140.561 40.2901 140.111 40.8401 140.111C41.3901 140.111 41.8401 140.561 41.8401 141.111C41.8401 141.661 41.3901 142.111 40.8401 142.111C40.2901 142.111 39.8401 141.661 39.8401 141.111ZM319.84 140.961C319.84 140.911 319.85 140.861 319.85 140.821C319.84 140.771 319.84 140.711 319.84 140.661C319.84 140.111 320.28 139.661 320.84 139.661C321.39 139.651 321.84 140.101 321.84 140.651C321.84 140.711 321.84 140.761 321.83 140.811C321.84 140.861 321.84 140.911 321.84 140.961C321.84 141.511 321.39 141.961 320.84 141.961C320.29 141.961 319.84 141.511 319.84 140.961ZM40.9502 135.131C40.4002 135.111 39.98 134.641 40.01 134.091C40.03 133.531 40.5 133.111 41.05 133.141C41.6 133.161 42.03 133.631 42 134.181C41.98 134.721 41.53 135.131 41 135.131C40.99 135.131 40.9702 135.131 40.9502 135.131ZM319.66 133.731C319.63 133.181 320.05 132.711 320.6 132.681C321.16 132.651 321.63 133.081 321.65 133.631C321.68 134.181 321.26 134.651 320.71 134.681C320.69 134.681 320.67 134.681 320.65 134.681C320.12 134.681 319.68 134.261 319.66 133.731ZM41.4102 128.171C40.8602 128.121 40.46 127.631 40.51 127.081C40.51 127.081 40.51 127.081 40.52 127.081C40.57 126.531 41.0601 126.131 41.6101 126.181C42.1601 126.231 42.56 126.721 42.5 127.271H42.51C42.46 127.791 42.02 128.181 41.51 128.181C41.48 128.181 41.4502 128.171 41.4102 128.171ZM319.13 126.821C319.07 126.271 319.47 125.781 320.02 125.731C320.57 125.671 321.06 126.071 321.12 126.621C321.17 127.171 320.77 127.661 320.22 127.721C320.19 127.721 320.16 127.721 320.12 127.721C319.61 127.721 319.18 127.341 319.13 126.821ZM42.2102 121.241C41.6702 121.161 41.2901 120.651 41.3701 120.101C41.4501 119.561 41.96 119.181 42.51 119.261C43.05 119.341 43.4301 119.851 43.3501 120.401C43.2801 120.891 42.8501 121.251 42.3601 121.251C42.3101 121.251 42.2602 121.251 42.2102 121.241ZM318.26 119.951C318.18 119.401 318.56 118.891 319.1 118.811C319.65 118.731 320.16 119.101 320.24 119.651C320.32 120.191 319.95 120.701 319.4 120.791C319.35 120.801 319.3 120.801 319.25 120.801C318.76 120.801 318.34 120.441 318.26 119.951ZM43.3601 114.351C42.8201 114.241 42.4701 113.721 42.5801 113.181C42.6801 112.641 43.21 112.281 43.75 112.391C44.29 112.501 44.65 113.031 44.54 113.571C44.44 114.041 44.0301 114.371 43.5601 114.371C43.4901 114.371 43.4301 114.371 43.3601 114.351ZM317.05 113.131C316.94 112.581 317.29 112.061 317.83 111.951C318.38 111.841 318.9 112.191 319.01 112.731C319.12 113.271 318.77 113.801 318.23 113.911C318.16 113.921 318.1 113.931 318.03 113.931C317.57 113.931 317.15 113.601 317.05 113.131ZM44.8501 107.541C44.3201 107.401 43.9901 106.861 44.1301 106.321C44.2601 105.791 44.8101 105.461 45.3401 105.601C45.8701 105.731 46.2001 106.271 46.0601 106.811C45.9501 107.261 45.5401 107.571 45.0901 107.571C45.0101 107.571 44.9301 107.561 44.8501 107.541ZM315.5 106.371C315.37 105.841 315.69 105.291 316.22 105.161C316.76 105.021 317.3 105.341 317.44 105.881C317.58 106.411 317.26 106.961 316.72 107.101C316.64 107.121 316.55 107.131 316.47 107.131C316.03 107.131 315.62 106.821 315.5 106.371ZM46.6802 100.801C46.1502 100.641 45.86 100.081 46.02 99.5506C46.18 99.0206 46.74 98.7307 47.27 98.8907C47.79 99.0507 48.0902 99.6107 47.9302 100.141C47.8002 100.571 47.4 100.851 46.97 100.851C46.88 100.851 46.7802 100.831 46.6802 100.801ZM313.62 99.7106C313.45 99.1806 313.75 98.6206 314.28 98.4606C314.8 98.2906 315.36 98.5906 315.53 99.1106C315.69 99.6406 315.4 100.201 314.87 100.371C314.77 100.401 314.67 100.411 314.57 100.411C314.14 100.411 313.75 100.141 313.62 99.7106ZM48.8501 94.1506C48.3301 93.9606 48.07 93.3906 48.25 92.8707C48.25 92.8707 48.25 92.8707 48.26 92.8707C48.44 92.3507 49.01 92.0807 49.54 92.2707C50.05 92.4607 50.3201 93.0306 50.1301 93.5506C49.9901 93.9606 49.6002 94.2106 49.1902 94.2106C49.0802 94.2106 48.9701 94.1906 48.8501 94.1506ZM311.4 93.1407C311.21 92.6307 311.47 92.0506 311.99 91.8606C312.51 91.6706 313.09 91.9406 313.28 92.4606C313.46 92.9806 313.2 93.5506 312.68 93.7406C312.57 93.7806 312.45 93.8006 312.34 93.8006C311.93 93.8006 311.55 93.5507 311.4 93.1407ZM51.3601 87.6207C50.8501 87.4007 50.6101 86.8206 50.8201 86.3106C51.0301 85.8006 51.6201 85.5606 52.1301 85.7806C52.6401 85.9906 52.8802 86.5806 52.6602 87.0906C52.5002 87.4706 52.13 87.7006 51.74 87.7006C51.61 87.7006 51.4801 87.6707 51.3601 87.6207ZM308.86 86.7206C308.64 86.2106 308.88 85.6206 309.39 85.4006C309.9 85.1906 310.48 85.4306 310.7 85.9306C310.91 86.4406 310.68 87.0307 310.17 87.2507C310.04 87.3007 309.91 87.3206 309.78 87.3206C309.39 87.3206 309.02 87.1006 308.86 86.7206ZM54.1802 81.2306C53.6802 80.9906 53.48 80.3907 53.72 79.8907C53.95 79.3907 54.55 79.1806 55.05 79.4206C55.55 79.6606 55.76 80.2607 55.52 80.7607C55.34 81.1207 54.9901 81.3306 54.6101 81.3306C54.4701 81.3306 54.3202 81.2906 54.1802 81.2306ZM306 80.4206C305.76 79.9206 305.97 79.3206 306.46 79.0806C306.96 78.8406 307.56 79.0506 307.8 79.5506C308.04 80.0406 307.83 80.6407 307.34 80.8807C307.19 80.9507 307.04 80.9806 306.9 80.9806C306.53 80.9806 306.17 80.7806 306 80.4206ZM57.3201 74.9806C56.8401 74.7206 56.6602 74.1107 56.9302 73.6307C57.1902 73.1407 57.8 72.9606 58.28 73.2306C58.76 73.4906 58.9502 74.1006 58.6802 74.5806C58.5002 74.9206 58.15 75.1106 57.8 75.1106C57.64 75.1106 57.4801 75.0706 57.3201 74.9806ZM302.83 74.2707C302.56 73.7907 302.74 73.1806 303.22 72.9106C303.71 72.6506 304.32 72.8206 304.58 73.3106C304.85 73.7906 304.67 74.4006 304.18 74.6706C304.03 74.7506 303.87 74.7906 303.7 74.7906C303.35 74.7906 303.01 74.6007 302.83 74.2707ZM256.1 24.0706C255.63 23.7806 255.5 23.1606 255.8 22.6906C256.1 22.2306 256.72 22.0907 257.18 22.3907C257.18 22.3907 257.18 22.3906 257.18 22.4006C257.64 22.6906 257.78 23.3106 257.48 23.7806C257.29 24.0706 256.97 24.2306 256.64 24.2306C256.45 24.2306 256.26 24.1806 256.1 24.0706ZM109.83 20.2707C109.56 19.7907 109.72 19.1806 110.2 18.9006C110.68 18.6306 111.29 18.7907 111.57 19.2707C111.84 19.7507 111.68 20.3607 111.2 20.6407C111.04 20.7307 110.87 20.7707 110.7 20.7707C110.36 20.7707 110.02 20.5907 109.83 20.2707ZM250.18 20.4606C249.7 20.1806 249.54 19.5706 249.81 19.1006C250.09 18.6206 250.7 18.4506 251.18 18.7306C251.66 19.0106 251.82 19.6206 251.54 20.1006C251.36 20.4206 251.02 20.6006 250.67 20.5906C250.51 20.5906 250.33 20.5506 250.18 20.4606ZM115.92 16.8807C115.67 16.3907 115.87 15.7906 116.35 15.5406C116.85 15.2806 117.45 15.4706 117.7 15.9706C117.96 16.4606 117.76 17.0606 117.27 17.3106C117.12 17.3906 116.97 17.4206 116.81 17.4206C116.45 17.4206 116.1 17.2307 115.92 16.8807ZM244.08 17.1506C243.59 16.8906 243.4 16.2906 243.65 15.8006C243.9 15.3106 244.5 15.1106 244.99 15.3606C245.48 15.6206 245.68 16.2206 245.43 16.7106C245.25 17.0606 244.9 17.2607 244.53 17.2607C244.38 17.2607 244.23 17.2206 244.08 17.1506ZM122.18 13.8006C121.95 13.3006 122.17 12.7106 122.67 12.4806C123.17 12.2506 123.77 12.4706 124 12.9806C124.22 13.4806 124 14.0706 123.5 14.3006C123.36 14.3606 123.22 14.3907 123.08 14.3907C122.7 14.3907 122.34 14.1706 122.18 13.8006ZM237.83 14.1407C237.33 13.9107 237.1 13.3206 237.33 12.8206C237.55 12.3206 238.14 12.0906 238.65 12.3206C239.15 12.5406 239.38 13.1407 239.15 13.6407C238.98 14.0107 238.62 14.2306 238.24 14.2306C238.1 14.2306 237.96 14.2007 237.83 14.1407ZM128.57 11.0406C128.36 10.5306 128.61 9.94065 129.13 9.74065C129.64 9.54065 130.22 9.79059 130.43 10.3106C130.63 10.8206 130.38 11.4006 129.86 11.6106C129.74 11.6506 129.62 11.6706 129.5 11.6706C129.1 11.6706 128.72 11.4306 128.57 11.0406ZM231.43 11.4506C230.91 11.2506 230.66 10.6706 230.86 10.1606C231.06 9.64057 231.64 9.39062 232.15 9.59062C232.15 9.59062 232.15 9.59062 232.16 9.59062C232.67 9.79062 232.92 10.3707 232.72 10.8807C232.57 11.2807 232.19 11.5207 231.79 11.5207C231.67 11.5207 231.54 11.5006 231.43 11.4506ZM135.1 8.60063C134.93 8.07063 135.21 7.51061 135.73 7.33061C136.25 7.15061 136.82 7.44062 137 7.96062C137.17 8.48062 136.89 9.05063 136.37 9.22063V9.23064C136.27 9.26064 136.16 9.28056 136.05 9.28056C135.63 9.28056 135.24 9.02063 135.1 8.60063ZM224.9 9.09062C224.37 8.91062 224.09 8.3406 224.27 7.8206C224.44 7.3006 225.01 7.0206 225.53 7.1906C226.05 7.3606 226.34 7.93061 226.16 8.45061C226.02 8.87061 225.63 9.14067 225.21 9.14067C225.11 9.14067 225 9.12062 224.9 9.09062ZM141.75 6.48064C141.61 5.95064 141.91 5.40066 142.45 5.25066C142.98 5.10066 143.53 5.4106 143.68 5.9406C143.83 6.4706 143.52 7.02058 142.99 7.17058V7.18059C142.9 7.20059 142.81 7.21062 142.72 7.21062C142.28 7.21062 141.88 6.93064 141.75 6.48064ZM218.27 7.06059C217.74 6.91059 217.43 6.36061 217.58 5.83061C217.72 5.29061 218.28 4.98066 218.81 5.13066C219.34 5.28066 219.65 5.83064 219.5 6.36064C219.38 6.81064 218.98 7.10063 218.54 7.10063C218.45 7.10063 218.36 7.08059 218.27 7.06059ZM148.51 4.71062C148.38 4.17062 148.72 3.63067 149.26 3.51067C149.79 3.39067 150.33 3.72067 150.45 4.26067C150.58 4.80067 150.24 5.34062 149.7 5.46062C149.63 5.48062 149.55 5.49065 149.48 5.49065C149.02 5.49065 148.61 5.17062 148.51 4.71062ZM211.55 5.36064C211.01 5.24064 210.68 4.71058 210.8 4.17058C210.92 3.63058 211.46 3.29057 211.99 3.41057C212.53 3.53057 212.87 4.07064 212.75 4.61064C212.64 5.07064 212.23 5.39067 211.77 5.39067C211.7 5.39067 211.63 5.38064 211.55 5.36064ZM155.33 3.27068C155.24 2.73068 155.6 2.21064 156.14 2.11064C156.69 2.02064 157.21 2.38059 157.3 2.93059C157.4 3.47059 157.04 3.99061 156.49 4.08061C156.43 4.09061 156.37 4.10063 156.32 4.10063C155.84 4.10063 155.42 3.76068 155.33 3.27068ZM204.76 4.01067C204.21 3.92067 203.85 3.40064 203.95 2.86064C204.04 2.31064 204.56 1.94057 205.1 2.04057C205.64 2.13057 206.01 2.6506 205.92 3.1906C205.83 3.6806 205.41 4.02068 204.93 4.02068C204.87 4.02068 204.82 4.02067 204.76 4.01067ZM162.23 2.18059C162.16 1.63059 162.54 1.13059 163.09 1.06059C163.64 1.00059 164.14 1.39059 164.21 1.93059C164.28 2.48059 163.89 2.98058 163.34 3.05058C163.3 3.06058 163.26 3.06059 163.22 3.06059C162.72 3.06059 162.29 2.69059 162.23 2.18059ZM197.91 3.00066C197.36 2.93066 196.97 2.43066 197.03 1.88066C197.1 1.33066 197.6 0.940666 198.15 1.01067C198.7 1.08067 199.09 1.58066 199.02 2.13066C198.96 2.63066 198.53 3.00066 198.03 3.00066C197.99 3.00066 197.95 3.00066 197.91 3.00066ZM169.16 1.4406C169.12 0.890597 169.54 0.400641 170.09 0.360641C170.63 0.320641 171.12 0.740573 171.16 1.29057C171.2 1.83057 170.79 2.32064 170.24 2.36064C170.21 2.36064 170.19 2.36064 170.16 2.36064C169.64 2.36064 169.2 1.9606 169.16 1.4406ZM191.01 2.33061C190.46 2.29061 190.04 1.80067 190.09 1.26067C190.12 0.710666 190.6 0.290612 191.15 0.330612C191.71 0.370612 192.12 0.850558 192.08 1.40056C192.04 1.93056 191.6 2.33061 191.08 2.33061C191.06 2.33061 191.03 2.33061 191.01 2.33061ZM176.13 1.03056C176.12 0.480563 176.55 0.0206656 177.1 0.0106656C177.1 0.0106656 177.1 0.0106656 177.11 0.0106656C177.66 0.000665623 178.11 0.430636 178.13 0.980636C178.14 1.53064 177.71 1.99067 177.16 2.01067C177.15 2.01067 177.14 2.01067 177.13 2.01067C176.59 2.01067 176.14 1.58056 176.13 1.03056ZM184.09 2.00066C183.53 1.98066 183.1 1.53063 183.11 0.970627C183.12 0.420627 183.58 -0.0193441 184.13 0.000655857C184.68 0.0106559 185.12 0.470675 185.11 1.02068C185.1 1.57068 184.65 2.00066 184.11 2.00066C184.1 2.00066 184.09 2.00066 184.09 2.00066Z" fill="#29ABE2"/>
<path d="M156.55 160.101C156.55 159.811 156.6 159.481 156.71 159.111L165.18 124.131C165.44 123.101 166.56 122.591 168.53 122.591H172.11C174.13 122.591 175.26 123.101 175.52 124.131L183.99 159.111C184.06 159.621 184.1 159.951 184.1 160.101C184.1 160.911 183.31 161.311 181.73 161.311H178.81C177.05 161.311 176.08 160.931 175.9 160.151L174.47 153.441H166.11L164.63 160.151C164.48 160.921 163.62 161.311 162.05 161.311H159.19C157.43 161.311 156.55 160.911 156.55 160.101ZM173.54 146.731L171.07 135.071C170.81 133.751 170.59 132.361 170.41 130.891H170.13C169.95 132.361 169.73 133.751 169.47 135.071L167.05 146.731H173.54Z" fill="#29ABE2"/>
<path d="M191.2 159.551V124.351C191.2 123.141 192.26 122.541 194.39 122.541H196.7C198.79 122.541 199.83 123.151 199.83 124.351V159.551C199.83 160.761 198.79 161.361 196.7 161.361H194.39C192.26 161.361 191.2 160.761 191.2 159.551Z" fill="#29ABE2"/>
<g opacity="0.4">
<path opacity="0.4" d="M180.84 79.9606C214.53 79.9606 241.84 107.271 241.84 140.961C241.84 174.651 214.53 201.961 180.84 201.961C147.15 201.961 119.84 174.651 119.84 140.961C119.84 107.271 147.15 79.9606 180.84 79.9606ZM180.84 77.9606C146.1 77.9606 117.84 106.221 117.84 140.961C117.84 175.701 146.1 203.961 180.84 203.961C215.58 203.961 243.84 175.701 243.84 140.961C243.84 106.221 215.58 77.9606 180.84 77.9606Z" fill="#29ABE2"/>
</g>
<path d="M180.84 90.9606C208.45 90.9606 230.84 113.351 230.84 140.961C230.84 168.571 208.45 190.961 180.84 190.961C153.23 190.961 130.84 168.571 130.84 140.961C130.84 113.351 153.23 90.9606 180.84 90.9606ZM180.84 85.9606C150.51 85.9606 125.84 110.631 125.84 140.961C125.84 171.291 150.51 195.961 180.84 195.961C211.17 195.961 235.84 171.291 235.84 140.961C235.84 110.631 211.17 85.9606 180.84 85.9606Z" fill="#29ABE2"/>
<path d="M81.8401 46.6605C83.3313 46.6605 84.54 45.4517 84.54 43.9606C84.54 42.4694 83.3313 41.2606 81.8401 41.2606C80.3489 41.2606 79.1401 42.4694 79.1401 43.9606C79.1401 45.4517 80.3489 46.6605 81.8401 46.6605Z" fill="#29ABE2"/>
<path d="M93.54 46.6605C95.0312 46.6605 96.24 45.4517 96.24 43.9606C96.24 42.4694 95.0312 41.2606 93.54 41.2606C92.0489 41.2606 90.8401 42.4694 90.8401 43.9606C90.8401 45.4517 92.0489 46.6605 93.54 46.6605Z" fill="#29ABE2"/>
<path d="M70.1401 46.6605C71.6313 46.6605 72.8401 45.4517 72.8401 43.9606C72.8401 42.4694 71.6313 41.2606 70.1401 41.2606C68.649 41.2606 67.4402 42.4694 67.4402 43.9606C67.4402 45.4517 68.649 46.6605 70.1401 46.6605Z" fill="#29ABE2"/>
<path d="M105.24 46.6605C106.731 46.6605 107.94 45.4517 107.94 43.9606C107.94 42.4694 106.731 41.2606 105.24 41.2606C103.749 41.2606 102.54 42.4694 102.54 43.9606C102.54 45.4517 103.749 46.6605 105.24 46.6605Z" fill="#29ABE2"/>
<path d="M58.4402 46.6605C59.9314 46.6605 61.1401 45.4517 61.1401 43.9606C61.1401 42.4694 59.9314 41.2606 58.4402 41.2606C56.949 41.2606 55.74 42.4694 55.74 43.9606C55.74 45.4517 56.949 46.6605 58.4402 46.6605Z" fill="#29ABE2"/>
<path d="M70.1401 66.9305C71.6313 66.9305 72.8401 65.7218 72.8401 64.2306C72.8401 62.7394 71.6313 61.5305 70.1401 61.5305C68.649 61.5305 67.4402 62.7394 67.4402 64.2306C67.4402 65.7218 68.649 66.9305 70.1401 66.9305Z" fill="#29ABE2"/>
<path d="M93.54 26.3906C95.0312 26.3906 96.24 25.1817 96.24 23.6906C96.24 22.1994 95.0312 20.9906 93.54 20.9906C92.0489 20.9906 90.8401 22.1994 90.8401 23.6906C90.8401 25.1817 92.0489 26.3906 93.54 26.3906Z" fill="#29ABE2"/>
<path d="M93.54 66.9305C95.0312 66.9305 96.24 65.7218 96.24 64.2306C96.24 62.7394 95.0312 61.5305 93.54 61.5305C92.0489 61.5305 90.8401 62.7394 90.8401 64.2306C90.8401 65.7218 92.0489 66.9305 93.54 66.9305Z" fill="#29ABE2"/>
<path d="M70.1401 26.3906C71.6313 26.3906 72.8401 25.1817 72.8401 23.6906C72.8401 22.1994 71.6313 20.9906 70.1401 20.9906C68.649 20.9906 67.4402 22.1994 67.4402 23.6906C67.4402 25.1817 68.649 26.3906 70.1401 26.3906Z" fill="#29ABE2"/>
<path d="M63.9102 57.0106C65.4013 57.0106 66.6101 55.8017 66.6101 54.3105C66.6101 52.8194 65.4013 51.6106 63.9102 51.6106C62.419 51.6106 61.2102 52.8194 61.2102 54.3105C61.2102 55.8017 62.419 57.0106 63.9102 57.0106Z" fill="#29ABE2"/>
<path d="M99.77 36.3105C101.261 36.3105 102.47 35.1018 102.47 33.6106C102.47 32.1194 101.261 30.9105 99.77 30.9105C98.2789 30.9105 97.0701 32.1194 97.0701 33.6106C97.0701 35.1018 98.2789 36.3105 99.77 36.3105Z" fill="#29ABE2"/>
<path d="M81.8401 67.3606C83.3313 67.3606 84.54 66.1517 84.54 64.6605C84.54 63.1694 83.3313 61.9606 81.8401 61.9606C80.3489 61.9606 79.1401 63.1694 79.1401 64.6605C79.1401 66.1517 80.3489 67.3606 81.8401 67.3606Z" fill="#29ABE2"/>
<path d="M81.8401 25.9606C83.3313 25.9606 84.54 24.7518 84.54 23.2606C84.54 21.7695 83.3313 20.5605 81.8401 20.5605C80.3489 20.5605 79.1401 21.7695 79.1401 23.2606C79.1401 24.7518 80.3489 25.9606 81.8401 25.9606Z" fill="#29ABE2"/>
<path d="M99.77 57.0106C101.261 57.0106 102.47 55.8017 102.47 54.3105C102.47 52.8194 101.261 51.6106 99.77 51.6106C98.2789 51.6106 97.0701 52.8194 97.0701 54.3105C97.0701 55.8017 98.2789 57.0106 99.77 57.0106Z" fill="#29ABE2"/>
<path d="M63.9102 36.3105C65.4013 36.3105 66.6101 35.1018 66.6101 33.6106C66.6101 32.1194 65.4013 30.9105 63.9102 30.9105C62.419 30.9105 61.2102 32.1194 61.2102 33.6106C61.2102 35.1018 62.419 36.3105 63.9102 36.3105Z" fill="#29ABE2"/>
<path d="M75.99 56.7905C77.4812 56.7905 78.6902 55.5817 78.6902 54.0906C78.6902 52.5994 77.4812 51.3906 75.99 51.3906C74.4988 51.3906 73.29 52.5994 73.29 54.0906C73.29 55.5817 74.4988 56.7905 75.99 56.7905Z" fill="#29ABE2"/>
<path d="M87.6902 36.5305C89.1814 36.5305 90.3901 35.3217 90.3901 33.8306C90.3901 32.3394 89.1814 31.1306 87.6902 31.1306C86.199 31.1306 84.99 32.3394 84.99 33.8306C84.99 35.3217 86.199 36.5305 87.6902 36.5305Z" fill="#29ABE2"/>
<path d="M87.6902 56.7905C89.1814 56.7905 90.3901 55.5817 90.3901 54.0906C90.3901 52.5994 89.1814 51.3906 87.6902 51.3906C86.199 51.3906 84.99 52.5994 84.99 54.0906C84.99 55.5817 86.199 56.7905 87.6902 56.7905Z" fill="#29ABE2"/>
<path d="M75.99 36.5305C77.4812 36.5305 78.6902 35.3217 78.6902 33.8306C78.6902 32.3394 77.4812 31.1306 75.99 31.1306C74.4988 31.1306 73.29 32.3394 73.29 33.8306C73.29 35.3217 74.4988 36.5305 75.99 36.5305Z" fill="#29ABE2"/>
<path d="M159.12 223.231C159.08 223.201 159.05 223.181 159.04 223.151C159.02 223.121 159.01 223.071 159.01 223.011C159.01 222.891 159.03 222.761 159.07 222.631C159.11 222.501 159.17 222.431 159.24 222.431C159.27 222.431 159.29 222.441 159.3 222.451C159.31 222.461 159.32 222.471 159.33 222.471C159.7 222.761 160.16 222.901 160.72 222.901C161.06 222.901 161.34 222.801 161.55 222.601C161.76 222.401 161.88 222.121 161.88 221.771C161.88 221.461 161.79 221.211 161.62 221.041C161.45 220.861 161.19 220.691 160.85 220.511C160.47 220.321 160.17 220.151 159.95 220.001C159.73 219.851 159.54 219.651 159.39 219.411C159.24 219.171 159.17 218.861 159.17 218.491C159.17 217.881 159.36 217.411 159.74 217.051C160.12 216.701 160.62 216.531 161.24 216.531C161.71 216.531 162.12 216.631 162.46 216.831C162.51 216.861 162.53 216.901 162.53 216.951C162.53 217.041 162.5 217.161 162.44 217.321C162.38 217.481 162.32 217.561 162.25 217.561C162.23 217.561 162.19 217.541 162.12 217.511C161.87 217.381 161.56 217.321 161.19 217.321C160.87 217.321 160.6 217.411 160.38 217.591C160.16 217.771 160.05 218.041 160.05 218.381C160.05 218.681 160.14 218.921 160.33 219.111C160.51 219.291 160.81 219.491 161.22 219.701C161.56 219.871 161.84 220.031 162.05 220.191C162.26 220.341 162.43 220.541 162.58 220.781C162.72 221.021 162.79 221.331 162.79 221.701C162.79 222.331 162.6 222.811 162.21 223.161C161.82 223.511 161.32 223.681 160.71 223.681C160.07 223.691 159.55 223.531 159.12 223.231Z" fill="#29ABE2"/>
<path d="M165.64 223.441V217.401H164.2C164.08 217.401 164.01 217.301 164.01 217.101V216.941C164.01 216.741 164.07 216.641 164.2 216.641H167.96C168.03 216.641 168.08 216.661 168.11 216.711C168.14 216.761 168.15 216.831 168.15 216.941V217.101C168.15 217.211 168.13 217.281 168.11 217.331C168.09 217.381 168.03 217.401 167.96 217.401H166.54V223.441C166.54 223.591 166.41 223.661 166.16 223.661H166.02C165.77 223.661 165.64 223.581 165.64 223.441Z" fill="#29ABE2"/>
<path d="M169.87 223.441V216.941C169.87 216.831 169.89 216.761 169.94 216.711C169.99 216.661 170.05 216.641 170.15 216.641H171.63C172.29 216.641 172.78 216.781 173.1 217.061C173.42 217.341 173.58 217.791 173.58 218.411C173.58 218.821 173.5 219.171 173.33 219.451C173.17 219.731 172.94 219.951 172.66 220.091V220.131C172.79 220.201 172.91 220.331 173.01 220.521C173.11 220.711 173.22 221.001 173.35 221.381L173.98 223.351C174 223.411 174.01 223.461 174.01 223.491C174.01 223.601 173.88 223.651 173.62 223.651H173.45C173.36 223.651 173.28 223.631 173.21 223.611C173.14 223.581 173.1 223.541 173.09 223.491L172.49 221.531C172.37 221.151 172.23 220.891 172.08 220.751C171.93 220.611 171.71 220.541 171.42 220.541H170.79V223.421C170.79 223.571 170.66 223.641 170.41 223.641H170.27C170 223.661 169.87 223.581 169.87 223.441ZM171.77 219.801C172.01 219.801 172.22 219.681 172.39 219.431C172.56 219.191 172.65 218.901 172.65 218.571C172.65 218.181 172.57 217.881 172.4 217.691C172.24 217.501 172.01 217.401 171.72 217.401H170.77V219.801H171.77Z" fill="#29ABE2"/>
<path d="M175.11 223.491C175.11 223.471 175.12 223.431 175.13 223.361L176.94 216.811C176.98 216.681 177.11 216.621 177.34 216.621H177.66C177.9 216.621 178.03 216.681 178.06 216.811L179.87 223.361C179.89 223.411 179.9 223.451 179.9 223.491C179.9 223.541 179.87 223.581 179.8 223.611C179.74 223.641 179.65 223.651 179.52 223.651H179.35C179.14 223.651 179.02 223.601 178.99 223.491L178.56 221.851H176.41L175.99 223.491C175.96 223.601 175.84 223.651 175.63 223.651H175.47C175.23 223.661 175.11 223.601 175.11 223.491ZM178.35 221.101L177.64 218.361C177.62 218.271 177.58 218.071 177.53 217.751H177.48C177.47 217.801 177.45 217.871 177.44 217.981L177.36 218.361L176.65 221.101H178.35Z" fill="#29ABE2"/>
<path d="M182.35 223.441V217.401H180.91C180.78 217.401 180.72 217.301 180.72 217.101V216.941C180.72 216.741 180.78 216.641 180.91 216.641H184.67C184.74 216.641 184.79 216.661 184.82 216.711C184.85 216.761 184.86 216.831 184.86 216.941V217.101C184.86 217.211 184.85 217.281 184.82 217.331C184.79 217.381 184.74 217.401 184.67 217.401H183.25V223.441C183.25 223.591 183.12 223.661 182.87 223.661H182.73C182.48 223.661 182.35 223.581 182.35 223.441Z" fill="#29ABE2"/>
<path d="M186.67 223.571C186.63 223.521 186.6 223.451 186.6 223.341V216.941C186.6 216.831 186.62 216.761 186.67 216.711C186.71 216.661 186.78 216.641 186.87 216.641H189.75C189.88 216.641 189.94 216.741 189.94 216.941V217.101C189.94 217.301 189.88 217.401 189.75 217.401H187.5V219.681H189.52C189.65 219.681 189.71 219.781 189.71 219.981V220.141C189.71 220.341 189.65 220.441 189.52 220.441H187.5V222.881H189.75C189.82 222.881 189.87 222.901 189.89 222.951C189.92 223.001 189.93 223.071 189.93 223.181V223.341C189.93 223.451 189.92 223.521 189.89 223.571C189.86 223.621 189.81 223.641 189.75 223.641H186.87C186.78 223.641 186.71 223.611 186.67 223.571Z" fill="#29ABE2"/>
<path d="M195.97 220.121V222.981C195.97 223.231 195.79 223.421 195.42 223.531C195.05 223.641 194.63 223.701 194.15 223.701C192.46 223.701 191.62 222.531 191.62 220.201C191.62 218.971 191.84 218.061 192.28 217.471C192.72 216.881 193.37 216.581 194.24 216.581C194.49 216.581 194.73 216.611 194.98 216.681C195.23 216.751 195.43 216.831 195.6 216.931C195.76 217.031 195.85 217.121 195.85 217.211C195.85 217.301 195.81 217.421 195.72 217.571C195.63 217.721 195.56 217.791 195.49 217.791C195.47 217.791 195.4 217.751 195.28 217.671C195.16 217.591 195.01 217.521 194.84 217.461C194.67 217.401 194.47 217.371 194.26 217.371C193.66 217.371 193.23 217.601 192.96 218.061C192.69 218.521 192.56 219.211 192.56 220.111C192.56 220.961 192.69 221.641 192.94 222.161C193.19 222.681 193.61 222.941 194.19 222.941C194.54 222.941 194.84 222.901 195.08 222.811V220.581H194.23C194.16 220.581 194.11 220.561 194.08 220.511C194.04 220.461 194.03 220.391 194.03 220.281V220.121C194.03 220.011 194.05 219.941 194.08 219.891C194.11 219.841 194.16 219.821 194.23 219.821H195.71C195.88 219.821 195.97 219.921 195.97 220.121Z" fill="#29ABE2"/>
<path d="M199.37 223.441V220.471L197.67 216.971C197.62 216.891 197.6 216.831 197.6 216.791C197.6 216.681 197.74 216.621 198.02 216.621H198.2C198.31 216.621 198.4 216.631 198.46 216.651C198.52 216.671 198.56 216.711 198.59 216.771L199.85 219.591L201.12 216.761C201.14 216.711 201.19 216.671 201.26 216.651C201.33 216.631 201.42 216.621 201.52 216.621H201.66C201.79 216.631 201.89 216.641 201.95 216.671C202.01 216.701 202.04 216.741 202.04 216.791C202.04 216.841 202.02 216.901 201.98 216.971L200.27 220.501V223.441C200.27 223.591 200.14 223.661 199.89 223.661H199.75C199.5 223.661 199.37 223.581 199.37 223.441Z" fill="#29ABE2"/>
<path d="M278.54 72.1605C290.966 72.1605 301.04 62.0869 301.04 49.6605C301.04 37.2341 290.966 27.1605 278.54 27.1605C266.114 27.1605 256.04 37.2341 256.04 49.6605C256.04 62.0869 266.114 72.1605 278.54 72.1605Z" stroke="#29ABE2" stroke-width="2" stroke-miterlimit="10"/>
<path d="M323.54 59.6605C323.37 59.6605 323.2 59.6605 323.03 59.6505L323.15 57.6505C324.54 57.7305 325.92 57.4006 327.11 56.7106L328.11 58.4406C326.72 59.2406 325.15 59.6605 323.54 59.6605ZM319.01 58.4506C317.47 57.5606 316.23 56.2505 315.42 54.6705L317.2 53.7706C317.83 55.0106 318.8 56.0306 320 56.7206L319.01 58.4506ZM331.15 55.5606L329.48 54.4606C330.24 53.3006 330.64 51.9606 330.64 50.5606L332.64 50.5006V50.5606C332.64 52.3406 332.12 54.0706 331.15 55.5606ZM314.59 50.5906H314.44C314.44 48.7906 314.95 47.0706 315.91 45.5906L317.59 46.6805C316.84 47.8305 316.44 49.1705 316.44 50.5505L314.59 50.5906ZM329.87 47.3306C329.24 46.0906 328.26 45.0806 327.06 44.3906L328.05 42.6505C329.6 43.5305 330.84 44.8305 331.65 46.4205L329.87 47.3306ZM319.96 44.4305L318.95 42.7006C320.47 41.8106 322.25 41.3806 324.01 41.4706L323.91 43.4706C322.53 43.4006 321.15 43.7305 319.96 44.4305Z" fill="#29ABE2"/>
<path d="M314.65 32.7606H314.64C312.33 32.7606 310.12 32.2306 308.07 31.1906L308.98 29.4105C310.74 30.3105 312.65 30.7606 314.64 30.7606L314.65 32.7606ZM319.13 32.0505L318.51 30.1505C320.37 29.5405 322.09 28.4906 323.48 27.1006L324.89 28.5106C323.29 30.1206 321.29 31.3505 319.13 32.0505ZM304.4 28.5305C302.78 26.9205 301.56 24.9306 300.85 22.7706L302.75 22.1505C303.36 24.0105 304.42 25.7306 305.81 27.1206L304.4 28.5305ZM327.56 24.8406L325.78 23.9305C326.68 22.1605 327.14 20.2606 327.14 18.2606L329.14 18.2006V18.2606C329.14 20.5806 328.61 22.7906 327.56 24.8406ZM300.14 18.2905V18.2606C300.14 15.9506 300.67 13.7506 301.7 11.7106L303.48 12.6106C302.59 14.3706 302.13 16.2706 302.13 18.2606L300.14 18.2905ZM326.52 14.3506C325.91 12.4906 324.85 10.7806 323.45 9.39062L324.86 7.97058C326.48 9.58058 327.71 11.5706 328.42 13.7206L326.52 14.3506ZM305.78 9.44055L304.36 8.03052C305.97 6.41052 307.96 5.18059 310.12 4.48059L310.74 6.38062C308.88 6.99062 307.17 8.05055 305.78 9.44055ZM320.28 7.10059C318.53 6.21059 316.63 5.76062 314.64 5.76062L314.6 3.76062H314.64C316.94 3.76062 319.14 4.28056 321.18 5.32056L320.28 7.10059Z" fill="#29ABE2"/>
<path d="M87.4202 246.211C98.6039 246.211 107.67 237.144 107.67 225.961C107.67 214.777 98.6039 205.711 87.4202 205.711C76.2364 205.711 67.1702 214.777 67.1702 225.961C67.1702 237.144 76.2364 246.211 87.4202 246.211Z" fill="#29ABE2"/>
<path opacity="0.41" d="M63.9302 225.961C63.9302 217.441 68.47 209.981 75.26 205.861C74.47 205.771 73.6601 205.711 72.8401 205.711C61.6601 205.711 52.5901 214.781 52.5901 225.961C52.5901 237.141 61.6601 246.211 72.8401 246.211C73.6601 246.211 74.47 246.161 75.26 246.061C68.47 241.941 63.9302 234.481 63.9302 225.961Z" fill="#29ABE2"/>
<path opacity="0.15" d="M49.3501 225.961C49.3501 217.441 53.8902 209.981 60.6802 205.861C59.8902 205.771 59.08 205.711 58.26 205.711C47.08 205.711 38.01 214.781 38.01 225.961C38.01 237.141 47.08 246.211 58.26 246.211C59.08 246.211 59.8902 246.161 60.6802 246.061C53.8902 241.941 49.3501 234.481 49.3501 225.961Z" fill="#29ABE2"/>
<path d="M327.93 84.9305C327.89 84.8805 327.87 84.8106 327.87 84.7006V78.2006C327.87 78.0506 328 77.9806 328.25 77.9806H328.39C328.64 77.9806 328.77 78.0506 328.77 78.2006V84.2406H330.85C330.92 84.2406 330.97 84.2605 331.01 84.3105C331.04 84.3605 331.05 84.4305 331.05 84.5405V84.7006C331.05 84.8106 331.04 84.8805 331.01 84.9305C330.98 84.9805 330.93 85.0006 330.85 85.0006H328.14C328.04 85.0006 327.98 84.9705 327.93 84.9305Z" fill="#29ABE2"/>
<path d="M332.93 84.8005V78.2006C332.93 78.0506 333.06 77.9806 333.31 77.9806H333.46C333.71 77.9806 333.83 78.0506 333.83 78.2006V84.8005C333.83 84.9505 333.71 85.0206 333.46 85.0206H333.31C333.05 85.0206 332.93 84.9405 332.93 84.8005Z" fill="#29ABE2"/>
<path d="M340.53 81.4806V84.3406C340.53 84.5906 340.35 84.7806 339.98 84.8906C339.61 85.0006 339.19 85.0605 338.71 85.0605C337.02 85.0605 336.18 83.8905 336.18 81.5605C336.18 80.3305 336.4 79.4206 336.84 78.8306C337.28 78.2406 337.93 77.9406 338.8 77.9406C339.05 77.9406 339.29 77.9705 339.54 78.0405C339.79 78.1105 339.99 78.1905 340.16 78.2905C340.33 78.3905 340.41 78.4805 340.41 78.5605C340.41 78.6505 340.37 78.7705 340.28 78.9205C340.19 79.0705 340.12 79.1406 340.05 79.1406C340.03 79.1406 339.96 79.1006 339.84 79.0206C339.72 78.9406 339.58 78.8805 339.41 78.8105C339.24 78.7505 339.04 78.7206 338.83 78.7206C338.23 78.7206 337.8 78.9505 337.53 79.4205C337.26 79.8805 337.13 80.5606 337.13 81.4606C337.13 82.3106 337.26 82.9906 337.51 83.5106C337.76 84.0306 338.18 84.2905 338.76 84.2905C339.11 84.2905 339.41 84.2505 339.65 84.1605V81.9305H338.8C338.73 81.9305 338.68 81.9106 338.65 81.8606C338.62 81.8106 338.6 81.7406 338.6 81.6306V81.4706C338.6 81.3606 338.62 81.2906 338.65 81.2406C338.68 81.1906 338.73 81.1705 338.8 81.1705H340.28C340.44 81.1805 340.53 81.2806 340.53 81.4806Z" fill="#29ABE2"/>
<path d="M343 84.8005V78.2006C343 78.0506 343.13 77.9806 343.38 77.9806H343.53C343.78 77.9806 343.9 78.0506 343.9 78.2006V81.0305H346.53V78.2006C346.53 78.0506 346.66 77.9806 346.91 77.9806H347.05C347.3 77.9806 347.43 78.0506 347.43 78.2006V84.8005C347.43 84.9505 347.3 85.0206 347.05 85.0206H346.91C346.66 85.0206 346.53 84.9505 346.53 84.8005V81.7905H343.9V84.8005C343.9 84.9505 343.78 85.0206 343.53 85.0206H343.38C343.12 85.0206 343 84.9405 343 84.8005Z" fill="#29ABE2"/>
<path d="M351.05 84.8005V78.7606H349.61C349.48 78.7606 349.42 78.6606 349.42 78.4606V78.3005C349.42 78.1005 349.48 78.0006 349.61 78.0006H353.37C353.44 78.0006 353.49 78.0206 353.52 78.0706C353.55 78.1206 353.56 78.1905 353.56 78.3005V78.4606C353.56 78.5706 353.55 78.6406 353.52 78.6906C353.49 78.7406 353.44 78.7606 353.37 78.7606H351.95V84.8005C351.95 84.9505 351.82 85.0206 351.57 85.0206H351.43C351.17 85.0206 351.05 84.9405 351.05 84.8005Z" fill="#29ABE2"/>
<path d="M355.55 84.8005V78.2006C355.55 78.0506 355.68 77.9806 355.93 77.9806H356.08C356.33 77.9806 356.45 78.0506 356.45 78.2006V81.0305H359.08V78.2006C359.08 78.0506 359.21 77.9806 359.46 77.9806H359.6C359.85 77.9806 359.98 78.0506 359.98 78.2006V84.8005C359.98 84.9505 359.85 85.0206 359.6 85.0206H359.46C359.21 85.0206 359.08 84.9505 359.08 84.8005V81.7905H356.45V84.8005C356.45 84.9505 356.33 85.0206 356.08 85.0206H355.93C355.67 85.0206 355.55 84.9405 355.55 84.8005Z" fill="#29ABE2"/>
<path d="M362.9 84.1705C362.47 83.5805 362.26 82.6806 362.26 81.4806C362.26 79.1206 363.09 77.9406 364.76 77.9406C366.43 77.9406 367.27 79.1206 367.27 81.4806C367.27 82.6806 367.06 83.5805 366.63 84.1705C366.2 84.7605 365.58 85.0605 364.76 85.0605C363.94 85.0605 363.32 84.7605 362.9 84.1705ZM366.35 81.4806C366.35 79.6306 365.82 78.7006 364.77 78.7006C364.24 78.7006 363.85 78.9206 363.59 79.3706C363.33 79.8206 363.19 80.5206 363.19 81.4706C363.19 83.3506 363.72 84.2905 364.77 84.2905C365.82 84.2905 366.35 83.3606 366.35 81.4806Z" fill="#29ABE2"/>
<path d="M370.02 84.5305C369.63 84.1805 369.44 83.6805 369.44 83.0505V78.2006C369.44 78.0506 369.57 77.9806 369.82 77.9806H369.96C370.21 77.9806 370.34 78.0506 370.34 78.2006V83.0806C370.34 83.4406 370.46 83.7306 370.72 83.9606C370.98 84.1906 371.29 84.3005 371.68 84.3005C372.07 84.3005 372.39 84.1806 372.64 83.9606C372.89 83.7406 373.02 83.4406 373.02 83.0806V78.2006C373.02 78.0506 373.15 77.9806 373.4 77.9806H373.54C373.79 77.9806 373.92 78.0506 373.92 78.2006V83.0505C373.92 83.6805 373.73 84.1805 373.34 84.5305C372.95 84.8805 372.4 85.0605 371.69 85.0605C370.98 85.0605 370.41 84.8805 370.02 84.5305Z" fill="#29ABE2"/>
<path d="M376.02 84.5906C375.98 84.5606 375.95 84.5406 375.94 84.5106C375.92 84.4806 375.92 84.4306 375.92 84.3706C375.92 84.2506 375.94 84.1206 375.98 83.9906C376.02 83.8606 376.08 83.7905 376.15 83.7905C376.18 83.7905 376.2 83.8005 376.21 83.8105C376.22 83.8205 376.23 83.8306 376.24 83.8306C376.61 84.1206 377.07 84.2606 377.63 84.2606C377.97 84.2606 378.25 84.1606 378.46 83.9606C378.67 83.7606 378.79 83.4806 378.79 83.1306C378.79 82.8206 378.7 82.5705 378.53 82.4005C378.36 82.2205 378.1 82.0506 377.76 81.8706C377.38 81.6806 377.08 81.5106 376.85 81.3606C376.63 81.2106 376.44 81.0106 376.29 80.7606C376.14 80.5206 376.06 80.2106 376.06 79.8506C376.06 79.2406 376.25 78.7605 376.64 78.4105C377.03 78.0605 377.52 77.8806 378.14 77.8806C378.61 77.8806 379.02 77.9805 379.36 78.1805C379.41 78.2105 379.43 78.2505 379.43 78.3005C379.43 78.3905 379.4 78.5105 379.34 78.6705C379.28 78.8305 379.22 78.9105 379.15 78.9105C379.13 78.9105 379.09 78.8906 379.02 78.8606C378.77 78.7306 378.46 78.6705 378.09 78.6705C377.77 78.6705 377.5 78.7606 377.28 78.9406C377.06 79.1206 376.95 79.3906 376.95 79.7306C376.95 80.0306 377.04 80.2706 377.23 80.4606C377.41 80.6406 377.71 80.8405 378.12 81.0505C378.46 81.2205 378.74 81.3905 378.95 81.5405C379.16 81.6905 379.34 81.8906 379.48 82.1306C379.62 82.3706 379.69 82.6805 379.69 83.0405C379.69 83.6705 379.5 84.1606 379.11 84.5006C378.72 84.8506 378.22 85.0305 377.61 85.0305C376.97 85.0505 376.44 84.8906 376.02 84.5906Z" fill="#29ABE2"/>
<path d="M381.81 84.9305C381.77 84.8805 381.74 84.8106 381.74 84.7006V78.3005C381.74 78.1905 381.76 78.1206 381.81 78.0706C381.85 78.0206 381.92 78.0006 382.01 78.0006H384.89C385.02 78.0006 385.08 78.1005 385.08 78.3005V78.4606C385.08 78.6606 385.02 78.7606 384.89 78.7606H382.64V81.0405H384.66C384.79 81.0405 384.85 81.1406 384.85 81.3406V81.5006C384.85 81.7006 384.79 81.8005 384.66 81.8005H382.64V84.2406H384.89C384.96 84.2406 385 84.2605 385.03 84.3105C385.06 84.3605 385.07 84.4305 385.07 84.5405V84.7006C385.07 84.8106 385.06 84.8805 385.03 84.9305C385 84.9805 384.95 85.0006 384.89 85.0006H382.01C381.92 85.0006 381.85 84.9705 381.81 84.9305Z" fill="#29ABE2"/>
<path d="M331.52 97.8005V91.3005C331.52 91.1905 331.54 91.1206 331.58 91.0706C331.62 91.0206 331.69 91.0006 331.79 91.0006H333.44C333.91 91.0006 334.33 91.1405 334.7 91.4205C335.07 91.7005 335.25 92.2106 335.25 92.9606C335.25 93.5106 335.15 93.9406 334.94 94.2506C334.73 94.5606 334.49 94.7606 334.23 94.8706C333.97 94.9706 333.73 95.0305 333.52 95.0305H332.42V97.8105C332.42 97.9605 332.29 98.0305 332.04 98.0305H331.9C331.64 98.0205 331.52 97.9405 331.52 97.8005ZM333.47 94.2606C333.69 94.2606 333.89 94.1606 334.07 93.9706C334.25 93.7806 334.34 93.4406 334.34 92.9606C334.34 92.5106 334.25 92.2006 334.07 92.0206C333.89 91.8406 333.66 91.7606 333.4 91.7606H332.42V94.2606H333.47Z" fill="#29ABE2"/>
<path d="M337.38 97.8005V91.3005C337.38 91.1905 337.4 91.1206 337.45 91.0706C337.49 91.0206 337.56 91.0006 337.66 91.0006H339.14C339.8 91.0006 340.29 91.1405 340.61 91.4205C340.93 91.7005 341.09 92.1506 341.09 92.7706C341.09 93.1806 341.01 93.5305 340.84 93.8105C340.68 94.0905 340.45 94.3106 340.17 94.4506V94.4906C340.3 94.5606 340.42 94.6906 340.52 94.8806C340.62 95.0706 340.73 95.3606 340.86 95.7406L341.49 97.7106C341.51 97.7706 341.52 97.8206 341.52 97.8506C341.52 97.9606 341.39 98.0106 341.13 98.0106H340.96C340.87 98.0106 340.79 97.9906 340.71 97.9706C340.64 97.9406 340.6 97.9006 340.59 97.8506L339.99 95.8906C339.87 95.5106 339.74 95.2506 339.58 95.1206C339.43 94.9806 339.21 94.9105 338.91 94.9105H338.28V97.7905C338.28 97.9405 338.15 98.0106 337.9 98.0106H337.76C337.5 98.0206 337.38 97.9405 337.38 97.8005ZM339.28 94.1605C339.52 94.1605 339.73 94.0405 339.9 93.7905C340.07 93.5405 340.15 93.2605 340.15 92.9305C340.15 92.5405 340.07 92.2405 339.9 92.0505C339.73 91.8605 339.51 91.7606 339.22 91.7606H338.27V94.1605H339.28Z" fill="#29ABE2"/>
<path d="M343.77 97.1705C343.34 96.5805 343.13 95.6806 343.13 94.4806C343.13 92.1206 343.96 90.9406 345.63 90.9406C347.3 90.9406 348.14 92.1206 348.14 94.4806C348.14 95.6806 347.93 96.5805 347.5 97.1705C347.07 97.7605 346.45 98.0605 345.63 98.0605C344.81 98.0605 344.19 97.7605 343.77 97.1705ZM347.22 94.4806C347.22 92.6306 346.69 91.7006 345.64 91.7006C345.11 91.7006 344.72 91.9206 344.46 92.3706C344.2 92.8206 344.06 93.5206 344.06 94.4706C344.06 96.3506 344.59 97.2905 345.64 97.2905C346.69 97.2905 347.22 96.3606 347.22 94.4806Z" fill="#29ABE2"/>
<path d="M349.61 97.9706C349.42 97.9106 349.32 97.8306 349.32 97.7306C349.32 97.6406 349.34 97.5306 349.39 97.3906C349.44 97.2506 349.49 97.1805 349.55 97.1805C349.59 97.1805 349.67 97.1906 349.78 97.2206C349.89 97.2506 350.01 97.2606 350.12 97.2606C350.45 97.2606 350.7 97.1606 350.85 96.9706C351 96.7806 351.07 96.4605 351.07 96.0305V91.1805C351.07 91.0305 351.2 90.9606 351.45 90.9606H351.59C351.85 90.9606 351.98 91.0305 351.98 91.1805V95.9305C351.98 96.5905 351.84 97.1106 351.56 97.4806C351.28 97.8506 350.83 98.0405 350.23 98.0405C350 98.0605 349.8 98.0306 349.61 97.9706Z" fill="#29ABE2"/>
<path d="M354.63 97.9305C354.59 97.8805 354.56 97.8106 354.56 97.7006V91.3005C354.56 91.1905 354.58 91.1206 354.63 91.0706C354.67 91.0206 354.74 91.0006 354.83 91.0006H357.71C357.84 91.0006 357.9 91.1005 357.9 91.3005V91.4606C357.9 91.6606 357.84 91.7606 357.71 91.7606H355.46V94.0405H357.48C357.61 94.0405 357.67 94.1406 357.67 94.3406V94.5006C357.67 94.7006 357.61 94.8005 357.48 94.8005H355.46V97.2406H357.71C357.78 97.2406 357.82 97.2605 357.85 97.3105C357.88 97.3605 357.89 97.4305 357.89 97.5405V97.7006C357.89 97.8106 357.88 97.8805 357.85 97.9305C357.82 97.9805 357.77 98.0006 357.71 98.0006H354.84C354.74 98.0006 354.68 97.9705 354.63 97.9305Z" fill="#29ABE2"/>
<path d="M360.47 97.1906C360.05 96.6106 359.84 95.7206 359.84 94.5006C359.84 93.2906 360.05 92.4006 360.48 91.8206C360.91 91.2406 361.56 90.9406 362.44 90.9406C362.63 90.9406 362.81 90.9606 362.99 90.9906C363.17 91.0206 363.32 91.0706 363.45 91.1306C363.52 91.1606 363.56 91.1906 363.58 91.2306C363.6 91.2706 363.62 91.3305 363.62 91.4005C363.62 91.5105 363.59 91.6405 363.54 91.7905C363.49 91.9405 363.41 91.9805 363.31 91.9305C363.03 91.7905 362.74 91.7206 362.44 91.7206C361.87 91.7206 361.44 91.9406 361.17 92.3906C360.9 92.8406 360.76 93.5406 360.76 94.4906C360.76 95.4406 360.89 96.1506 361.17 96.6006C361.44 97.0506 361.86 97.2805 362.43 97.2805C362.78 97.2805 363.09 97.2005 363.37 97.0305C363.41 97.0205 363.44 97.0106 363.46 97.0106C363.55 97.0106 363.62 97.0705 363.67 97.1805C363.72 97.3005 363.75 97.4106 363.75 97.5206C363.75 97.5906 363.73 97.6506 363.7 97.7006C363.67 97.7506 363.6 97.8006 363.51 97.8506C363.4 97.9006 363.24 97.9506 363.05 97.9906C362.86 98.0306 362.65 98.0505 362.44 98.0505C361.55 98.0605 360.89 97.7706 360.47 97.1906Z" fill="#29ABE2"/>
<path d="M366.77 97.8005V91.7606H365.33C365.2 91.7606 365.14 91.6606 365.14 91.4606V91.3005C365.14 91.1005 365.2 91.0006 365.33 91.0006H369.09C369.16 91.0006 369.21 91.0206 369.24 91.0706C369.27 91.1206 369.28 91.1905 369.28 91.3005V91.4606C369.28 91.5706 369.27 91.6406 369.24 91.6906C369.21 91.7406 369.16 91.7606 369.09 91.7606H367.67V97.8005C367.67 97.9505 367.54 98.0206 367.29 98.0206H367.15C366.89 98.0206 366.77 97.9405 366.77 97.8005Z" fill="#29ABE2"/>
<path d="M372.62 100.011C372.1 99.5106 371.69 98.8306 371.4 97.9706C371.11 97.1106 370.95 96.1706 370.95 95.1406C370.95 94.1306 371.1 93.1906 371.4 92.3306C371.7 91.4706 372.11 90.7806 372.62 90.2706C372.69 90.2006 372.76 90.1705 372.83 90.1705C372.9 90.1705 372.96 90.1906 373.03 90.2506C373.1 90.3006 373.13 90.3605 373.13 90.4205C373.13 90.5005 373.1 90.5706 373.04 90.6406C372.62 91.1306 372.3 91.7605 372.09 92.5605C371.87 93.3505 371.76 94.2106 371.76 95.1406C371.76 96.0706 371.87 96.9306 372.09 97.7306C372.31 98.5206 372.62 99.1606 373.03 99.6406C373.09 99.7106 373.12 99.7806 373.12 99.8406C373.12 99.8906 373.09 99.9506 373.03 100.021C372.97 100.091 372.91 100.121 372.84 100.121C372.76 100.121 372.69 100.081 372.62 100.011Z" fill="#29ABE2"/>
<path d="M374.4 97.5906C374.36 97.5606 374.33 97.5406 374.32 97.5106C374.3 97.4806 374.3 97.4306 374.3 97.3706C374.3 97.2506 374.32 97.1206 374.36 96.9906C374.4 96.8606 374.46 96.7905 374.53 96.7905C374.56 96.7905 374.58 96.8005 374.59 96.8105C374.6 96.8205 374.61 96.8306 374.62 96.8306C374.99 97.1206 375.45 97.2606 376.01 97.2606C376.35 97.2606 376.63 97.1606 376.84 96.9606C377.05 96.7606 377.17 96.4806 377.17 96.1306C377.17 95.8206 377.08 95.5705 376.91 95.4005C376.74 95.2205 376.48 95.0506 376.14 94.8706C375.76 94.6806 375.46 94.5106 375.23 94.3606C375.01 94.2106 374.82 94.0106 374.67 93.7606C374.52 93.5206 374.44 93.2106 374.44 92.8506C374.44 92.2406 374.63 91.7605 375.02 91.4105C375.41 91.0605 375.9 90.8806 376.52 90.8806C376.99 90.8806 377.4 90.9805 377.74 91.1805C377.79 91.2105 377.81 91.2505 377.81 91.3005C377.81 91.3905 377.78 91.5105 377.72 91.6705C377.66 91.8305 377.6 91.9105 377.53 91.9105C377.51 91.9105 377.47 91.8906 377.4 91.8606C377.15 91.7306 376.84 91.6705 376.47 91.6705C376.15 91.6705 375.88 91.7606 375.66 91.9406C375.44 92.1206 375.33 92.3906 375.33 92.7306C375.33 93.0306 375.42 93.2706 375.61 93.4606C375.79 93.6406 376.09 93.8405 376.5 94.0505C376.84 94.2205 377.12 94.3905 377.33 94.5405C377.54 94.6905 377.72 94.8906 377.86 95.1306C378 95.3706 378.07 95.6805 378.07 96.0405C378.07 96.6705 377.88 97.1606 377.49 97.5006C377.1 97.8506 376.6 98.0305 375.99 98.0305C375.35 98.0505 374.82 97.8906 374.4 97.5906Z" fill="#29ABE2"/>
<path d="M379.27 100.021C379.21 99.9606 379.18 99.9006 379.18 99.8406C379.18 99.7906 379.21 99.7405 379.26 99.6705C379.68 99.1805 380 98.5406 380.22 97.7506C380.44 96.9606 380.55 96.0806 380.55 95.1406C380.55 94.2006 380.44 93.3405 380.22 92.5505C380 91.7605 379.68 91.1306 379.26 90.6406C379.2 90.5606 379.17 90.4905 379.17 90.4305C379.17 90.3705 379.2 90.3106 379.27 90.2506C379.34 90.1906 379.4 90.1705 379.47 90.1705C379.54 90.1705 379.61 90.2006 379.68 90.2706C380.2 90.7706 380.61 91.4505 380.91 92.3105C381.21 93.1705 381.35 94.1106 381.35 95.1306C381.35 96.1406 381.2 97.0806 380.9 97.9406C380.6 98.8006 380.19 99.4906 379.68 100.001C379.61 100.071 379.53 100.111 379.46 100.111C379.4 100.121 379.34 100.091 379.27 100.021Z" fill="#29ABE2"/>
<path d="M25.3501 270.991C24.9301 270.411 24.72 269.521 24.72 268.291C24.72 267.081 24.9301 266.191 25.3601 265.611C25.7901 265.031 26.4401 264.731 27.3201 264.731C27.5101 264.731 27.6901 264.751 27.8701 264.781C28.0501 264.811 28.2001 264.861 28.3301 264.921C28.4001 264.951 28.44 264.981 28.47 265.021C28.49 265.061 28.5 265.121 28.5 265.191C28.5 265.301 28.4702 265.431 28.4202 265.581C28.3702 265.731 28.2902 265.771 28.1902 265.721C27.9102 265.581 27.6201 265.511 27.3201 265.511C26.7501 265.511 26.32 265.731 26.05 266.181C25.78 266.631 25.6401 267.331 25.6401 268.281C25.6401 269.231 25.77 269.941 26.05 270.391C26.32 270.841 26.7401 271.071 27.3101 271.071C27.6601 271.071 27.97 270.991 28.25 270.821C28.29 270.811 28.3201 270.801 28.3401 270.801C28.4301 270.801 28.49 270.861 28.55 270.981C28.6 271.101 28.6201 271.211 28.6201 271.311C28.6201 271.381 28.6001 271.441 28.5701 271.491C28.5401 271.541 28.4701 271.591 28.3801 271.641C28.2701 271.691 28.1102 271.741 27.9202 271.791C27.7302 271.831 27.5201 271.851 27.3101 271.851C26.4201 271.861 25.7701 271.571 25.3501 270.991Z" fill="#29ABE2"/>
<path d="M30.9502 270.971C30.5202 270.381 30.3101 269.481 30.3101 268.281C30.3101 265.921 31.1401 264.741 32.8101 264.741C34.4801 264.741 35.3201 265.921 35.3201 268.281C35.3201 269.481 35.1102 270.381 34.6802 270.971C34.2502 271.561 33.6301 271.861 32.8101 271.861C32.0001 271.861 31.3802 271.561 30.9502 270.971ZM34.4001 268.281C34.4001 266.431 33.8701 265.501 32.8201 265.501C32.2901 265.501 31.9001 265.721 31.6401 266.171C31.3801 266.621 31.24 267.321 31.24 268.281C31.24 270.161 31.7701 271.101 32.8201 271.101C33.8701 271.101 34.4001 270.161 34.4001 268.281Z" fill="#29ABE2"/>
<path d="M37.79 271.601V265.001C37.79 264.851 37.9202 264.781 38.1702 264.781H38.4102C38.5102 264.781 38.5901 264.801 38.6501 264.821C38.7101 264.851 38.76 264.901 38.8 264.981L41.1201 269.451C41.2101 269.621 41.3001 269.831 41.3801 270.081L41.4302 270.061C41.3802 269.831 41.3501 269.611 41.3501 269.401V265.001C41.3501 264.851 41.48 264.781 41.73 264.781H41.8501C42.1001 264.781 42.23 264.851 42.23 265.001V271.601C42.23 271.751 42.1001 271.821 41.8501 271.821H41.6401C41.4501 271.821 41.33 271.771 41.28 271.671L38.9001 267.051C38.8101 266.881 38.7201 266.671 38.6401 266.421L38.5901 266.441C38.6401 266.671 38.6702 266.891 38.6702 267.101V271.601C38.6702 271.751 38.54 271.821 38.29 271.821H38.1702C37.9202 271.821 37.79 271.751 37.79 271.601Z" fill="#29ABE2"/>
<path d="M46.04 271.601V265.561H44.6001C44.4701 265.561 44.4102 265.461 44.4102 265.261V265.101C44.4102 264.901 44.4701 264.801 44.6001 264.801H48.3601C48.4301 264.801 48.48 264.821 48.52 264.871C48.56 264.921 48.5601 264.991 48.5601 265.101V265.261C48.5601 265.371 48.55 265.441 48.52 265.491C48.49 265.541 48.4401 265.561 48.3601 265.561H46.9402V271.601C46.9402 271.751 46.8101 271.821 46.5601 271.821H46.4202C46.1702 271.821 46.04 271.751 46.04 271.601Z" fill="#29ABE2"/>
<path d="M50.8601 271.601V265.001C50.8601 264.851 50.99 264.781 51.24 264.781H51.3901C51.6401 264.781 51.76 264.851 51.76 265.001V271.601C51.76 271.751 51.6401 271.821 51.3901 271.821H51.24C50.99 271.821 50.8601 271.751 50.8601 271.601Z" fill="#29ABE2"/>
<path d="M54.6001 271.601V265.001C54.6001 264.851 54.73 264.781 54.98 264.781H55.22C55.32 264.781 55.4002 264.801 55.4602 264.821C55.5202 264.851 55.5701 264.901 55.6101 264.981L57.9302 269.451C58.0202 269.621 58.1102 269.831 58.1902 270.081L58.24 270.061C58.19 269.831 58.1602 269.611 58.1602 269.401V265.001C58.1602 264.851 58.29 264.781 58.54 264.781H58.6602C58.9102 264.781 59.04 264.851 59.04 265.001V271.601C59.04 271.751 58.9102 271.821 58.6602 271.821H58.4502C58.2602 271.821 58.1401 271.771 58.0901 271.671L55.7102 267.051C55.6202 266.881 55.5302 266.671 55.4502 266.421L55.4001 266.441C55.4501 266.671 55.48 266.891 55.48 267.101V271.601C55.48 271.751 55.3501 271.821 55.1001 271.821H54.98C54.73 271.821 54.6001 271.751 54.6001 271.601Z" fill="#29ABE2"/>
<path d="M62.29 271.331C61.9 270.981 61.7102 270.481 61.7102 269.851V265.001C61.7102 264.851 61.8401 264.781 62.0901 264.781H62.23C62.48 264.781 62.6101 264.851 62.6101 265.001V269.881C62.6101 270.241 62.73 270.531 62.99 270.761C63.25 270.991 63.5602 271.101 63.9502 271.101C64.3402 271.101 64.6602 270.981 64.9102 270.751C65.1602 270.521 65.29 270.231 65.29 269.871V264.991C65.29 264.841 65.4202 264.771 65.6702 264.771H65.8101C66.0601 264.771 66.1902 264.841 66.1902 264.991V269.841C66.1902 270.471 66.0001 270.971 65.6101 271.321C65.2201 271.671 64.6702 271.851 63.9602 271.851C63.2502 271.851 62.68 271.681 62.29 271.331Z" fill="#29ABE2"/>
<path d="M69.23 270.971C68.8 270.381 68.5901 269.481 68.5901 268.281C68.5901 265.921 69.4201 264.741 71.0901 264.741C72.7601 264.741 73.6001 265.921 73.6001 268.281C73.6001 269.481 73.3902 270.381 72.9602 270.971C72.5302 271.561 71.9101 271.861 71.0901 271.861C70.2801 271.861 69.66 271.561 69.23 270.971ZM72.6802 268.281C72.6802 266.431 72.1501 265.501 71.1001 265.501C70.5701 265.501 70.1802 265.721 69.9202 266.171C69.6602 266.621 69.52 267.321 69.52 268.281C69.52 270.161 70.0501 271.101 71.1001 271.101C72.1501 271.101 72.6802 270.161 72.6802 268.281Z" fill="#29ABE2"/>
<path d="M76.6001 271.331C76.2101 270.981 76.02 270.481 76.02 269.851V265.001C76.02 264.851 76.1501 264.781 76.4001 264.781H76.54C76.79 264.781 76.9202 264.851 76.9202 265.001V269.881C76.9202 270.241 77.04 270.531 77.3 270.761C77.56 270.991 77.87 271.101 78.26 271.101C78.65 271.101 78.97 270.981 79.22 270.751C79.47 270.521 79.6001 270.231 79.6001 269.871V264.991C79.6001 264.841 79.73 264.771 79.98 264.771H80.1201C80.3701 264.771 80.5 264.841 80.5 264.991V269.841C80.5 270.471 80.3102 270.971 79.9202 271.321C79.5302 271.671 78.98 271.851 78.27 271.851C77.56 271.851 77.0001 271.681 76.6001 271.331Z" fill="#29ABE2"/>
<path d="M82.8501 271.391C82.8101 271.361 82.78 271.341 82.77 271.311C82.75 271.281 82.75 271.231 82.75 271.161C82.75 271.041 82.7701 270.911 82.8101 270.781C82.8501 270.651 82.91 270.591 82.98 270.591C83.01 270.591 83.03 270.601 83.04 270.611C83.05 270.621 83.0601 270.631 83.0701 270.631C83.4401 270.921 83.9002 271.061 84.4602 271.061C84.8002 271.061 85.08 270.961 85.29 270.761C85.5 270.561 85.6201 270.281 85.6201 269.941C85.6201 269.631 85.5301 269.381 85.3601 269.201C85.1901 269.021 84.9301 268.851 84.5901 268.681C84.2101 268.491 83.9102 268.321 83.6802 268.171C83.4502 268.021 83.2701 267.821 83.1201 267.581C82.9701 267.341 82.8901 267.031 82.8901 266.661C82.8901 266.051 83.08 265.581 83.47 265.231C83.85 264.881 84.35 264.701 84.97 264.701C85.44 264.701 85.8502 264.801 86.1902 265.001C86.2402 265.031 86.26 265.071 86.26 265.121C86.26 265.211 86.2302 265.331 86.1702 265.491C86.1102 265.651 86.05 265.731 85.98 265.731C85.96 265.731 85.9201 265.711 85.8501 265.681C85.6001 265.551 85.2902 265.491 84.9202 265.491C84.6002 265.491 84.3301 265.581 84.1101 265.761C83.8901 265.941 83.78 266.211 83.78 266.551C83.78 266.851 83.8701 267.091 84.0601 267.281C84.2401 267.461 84.5402 267.661 84.9502 267.871C85.2902 268.041 85.57 268.201 85.78 268.361C85.99 268.511 86.1701 268.711 86.3101 268.951C86.4501 269.191 86.52 269.501 86.52 269.871C86.52 270.501 86.3302 270.991 85.9402 271.331C85.5502 271.671 85.0502 271.861 84.4402 271.861C83.8002 271.851 83.2801 271.691 82.8501 271.391Z" fill="#29ABE2"/>
<path d="M18.4001 284.601V278.001C18.4001 277.851 18.53 277.781 18.78 277.781H18.9302C19.1802 277.781 19.3 277.851 19.3 278.001V284.601C19.3 284.751 19.1802 284.821 18.9302 284.821H18.78C18.53 284.821 18.4001 284.751 18.4001 284.601Z" fill="#29ABE2"/>
<path d="M24.48 282.281L23.3101 279.981C23.2201 279.791 23.12 279.561 23.01 279.291L22.97 279.311C23 279.581 23.02 279.811 23.02 280.021V284.601C23.02 284.751 22.8901 284.821 22.6401 284.821H22.52C22.27 284.821 22.1401 284.751 22.1401 284.601V278.001C22.1401 277.851 22.27 277.781 22.52 277.781H22.73C22.92 277.781 23.0501 277.841 23.1101 277.961L24.7102 281.091C24.7802 281.241 24.8401 281.401 24.8701 281.571C24.9001 281.401 24.96 281.241 25.03 281.091L26.6301 277.961C26.6901 277.841 26.82 277.781 27.01 277.781H27.22C27.47 277.781 27.6001 277.851 27.6001 278.001V284.601C27.6001 284.751 27.47 284.821 27.22 284.821H27.1001C26.8501 284.821 26.72 284.751 26.72 284.601V280.021C26.72 279.811 26.74 279.581 26.77 279.311L26.73 279.291C26.62 279.561 26.5202 279.791 26.4302 279.981L25.26 282.281C25.22 282.371 25.15 282.411 25.04 282.411H24.7002C24.5902 282.411 24.52 282.371 24.48 282.281Z" fill="#29ABE2"/>
<path d="M30.28 284.601V278.101C30.28 277.991 30.3001 277.921 30.3401 277.871C30.3801 277.821 30.45 277.801 30.55 277.801H32.2002C32.6702 277.801 33.0902 277.941 33.4602 278.221C33.8302 278.501 34.02 279.011 34.02 279.761C34.02 280.311 33.9102 280.741 33.7002 281.051C33.4902 281.361 33.25 281.561 32.99 281.671C32.73 281.781 32.49 281.831 32.28 281.831H31.1802V284.611C31.1802 284.761 31.05 284.831 30.8 284.831H30.6602C30.4102 284.821 30.28 284.751 30.28 284.601ZM32.23 281.061C32.45 281.061 32.6501 280.961 32.8301 280.771C33.0101 280.581 33.1001 280.241 33.1001 279.761C33.1001 279.311 33.0101 279.001 32.8301 278.821C32.6501 278.641 32.4202 278.551 32.1602 278.551H31.1802V281.051H32.23V281.061Z" fill="#29ABE2"/>
<path d="M36.3901 284.601V278.101C36.3901 277.991 36.4102 277.921 36.4502 277.871C36.4902 277.821 36.5602 277.801 36.6602 277.801H38.1401C38.8001 277.801 39.2901 277.941 39.6101 278.221C39.9301 278.501 40.0901 278.951 40.0901 279.571C40.0901 279.981 40.0101 280.331 39.8401 280.611C39.6801 280.891 39.4502 281.111 39.1602 281.261V281.301C39.2902 281.371 39.41 281.501 39.51 281.691C39.61 281.881 39.7201 282.171 39.8501 282.551L40.48 284.521C40.5 284.581 40.51 284.631 40.51 284.661C40.51 284.771 40.3801 284.821 40.1201 284.821H39.9502C39.8602 284.821 39.7802 284.811 39.7102 284.781C39.6402 284.751 39.6001 284.711 39.5901 284.661L38.99 282.701C38.87 282.321 38.7401 282.061 38.5801 281.921C38.4301 281.781 38.2102 281.711 37.9102 281.711H37.28V284.591C37.28 284.741 37.1501 284.811 36.9001 284.811H36.76C36.52 284.821 36.3901 284.751 36.3901 284.601ZM38.29 280.961C38.53 280.961 38.7402 280.841 38.9102 280.591C39.0802 280.351 39.1602 280.061 39.1602 279.731C39.1602 279.341 39.0802 279.041 38.9102 278.851C38.7502 278.661 38.52 278.561 38.23 278.561H37.28V280.961H38.29Z" fill="#29ABE2"/>
<path d="M43.03 283.971C42.6 283.381 42.3901 282.481 42.3901 281.281C42.3901 278.921 43.2201 277.741 44.8901 277.741C46.5601 277.741 47.4001 278.921 47.4001 281.281C47.4001 282.481 47.19 283.381 46.76 283.971C46.33 284.561 45.7101 284.861 44.8901 284.861C44.0801 284.861 43.46 284.561 43.03 283.971ZM46.48 281.281C46.48 279.431 45.9501 278.501 44.9001 278.501C44.3701 278.501 43.9802 278.721 43.7102 279.171C43.4502 279.621 43.3201 280.321 43.3201 281.281C43.3201 283.161 43.8501 284.101 44.9001 284.101C45.9501 284.101 46.48 283.161 46.48 281.281Z" fill="#29ABE2"/>
<path d="M50.9602 284.661L49.22 278.081C49.21 278.061 49.2102 278.041 49.2002 278.021C49.1902 278.001 49.1902 277.981 49.1902 277.951C49.1902 277.841 49.3201 277.781 49.5901 277.781H49.73C49.95 277.781 50.0701 277.831 50.1001 277.941L51.3401 282.891C51.4001 283.111 51.46 283.411 51.53 283.781H51.5601C51.5801 283.641 51.65 283.341 51.76 282.891L52.99 277.941C53.02 277.831 53.1401 277.781 53.3601 277.781H53.48C53.75 277.781 53.8801 277.841 53.8801 277.951C53.8801 277.981 53.8701 278.031 53.8501 278.091L52.1101 284.661C52.0801 284.771 51.96 284.821 51.74 284.821H51.3201C51.1101 284.821 50.9902 284.761 50.9602 284.661Z" fill="#29ABE2"/>
<path d="M56.1802 284.731C56.1402 284.681 56.1101 284.611 56.1101 284.501V278.101C56.1101 277.991 56.1302 277.921 56.1802 277.871C56.2302 277.821 56.2901 277.801 56.3801 277.801H59.26C59.39 277.801 59.4502 277.901 59.4502 278.101V278.261C59.4502 278.461 59.39 278.561 59.26 278.561H57.01V280.841H59.03C59.16 280.841 59.22 280.941 59.22 281.141V281.301C59.22 281.501 59.16 281.601 59.03 281.601H57.01V284.041H59.26C59.33 284.041 59.3801 284.061 59.4001 284.111C59.4301 284.161 59.4402 284.231 59.4402 284.341V284.501C59.4402 284.611 59.4301 284.681 59.4001 284.731C59.3701 284.781 59.32 284.801 59.26 284.801H56.3801C56.2901 284.801 56.2202 284.771 56.1802 284.731Z" fill="#29ABE2"/>
<path d="M64.2102 282.281L63.04 279.981C62.95 279.791 62.85 279.561 62.74 279.291L62.7002 279.311C62.7302 279.581 62.75 279.811 62.75 280.021V284.601C62.75 284.751 62.6201 284.821 62.3701 284.821H62.25C62 284.821 61.8701 284.751 61.8701 284.601V278.001C61.8701 277.851 62 277.781 62.25 277.781H62.4602C62.6502 277.781 62.7801 277.841 62.8401 277.961L64.4402 281.091C64.5102 281.241 64.5701 281.401 64.6001 281.571C64.6301 281.401 64.69 281.241 64.76 281.091L66.3601 277.961C66.4201 277.841 66.55 277.781 66.74 277.781H66.9502C67.2002 277.781 67.3301 277.851 67.3301 278.001V284.601C67.3301 284.751 67.2002 284.821 66.9502 284.821H66.8301C66.5801 284.821 66.4502 284.751 66.4502 284.601V280.021C66.4502 279.811 66.47 279.581 66.5 279.311L66.4602 279.291C66.3502 279.561 66.2502 279.791 66.1602 279.981L64.99 282.281C64.95 282.371 64.88 282.411 64.77 282.411H64.4302C64.3202 282.411 64.2502 282.371 64.2102 282.281Z" fill="#29ABE2"/>
<path d="M70.1401 284.731C70.1001 284.681 70.0701 284.611 70.0701 284.501V278.101C70.0701 277.991 70.0901 277.921 70.1401 277.871C70.1801 277.821 70.2501 277.801 70.3401 277.801H73.22C73.35 277.801 73.4102 277.901 73.4102 278.101V278.261C73.4102 278.461 73.35 278.561 73.22 278.561H70.97V280.841H72.99C73.12 280.841 73.1802 280.941 73.1802 281.141V281.301C73.1802 281.501 73.12 281.601 72.99 281.601H70.97V284.041H73.22C73.29 284.041 73.3301 284.061 73.3601 284.111C73.3901 284.161 73.4001 284.231 73.4001 284.341V284.501C73.4001 284.611 73.3901 284.681 73.3601 284.731C73.3301 284.781 73.28 284.801 73.22 284.801H70.3401C70.2501 284.801 70.1801 284.771 70.1401 284.731Z" fill="#29ABE2"/>
<path d="M75.8301 284.601V278.001C75.8301 277.851 75.9602 277.781 76.2102 277.781H76.4502C76.5502 277.781 76.6302 277.801 76.6902 277.821C76.7502 277.851 76.8001 277.901 76.8401 277.981L79.1602 282.451C79.2502 282.621 79.3402 282.831 79.4202 283.081L79.47 283.061C79.42 282.831 79.3901 282.611 79.3901 282.401V278.001C79.3901 277.851 79.52 277.781 79.77 277.781H79.8901C80.1401 277.781 80.27 277.851 80.27 278.001V284.601C80.27 284.751 80.1401 284.821 79.8901 284.821H79.6802C79.4902 284.821 79.3701 284.771 79.3201 284.671L76.9402 280.051C76.8502 279.881 76.7602 279.671 76.6802 279.421L76.6301 279.441C76.6801 279.671 76.7102 279.891 76.7102 280.101V284.601C76.7102 284.751 76.5801 284.821 76.3301 284.821H76.2102C75.9602 284.821 75.8301 284.751 75.8301 284.601Z" fill="#29ABE2"/>
<path d="M84.0801 284.601V278.561H82.6401C82.5101 278.561 82.4502 278.461 82.4502 278.261V278.101C82.4502 277.901 82.5101 277.801 82.6401 277.801H86.4001C86.4701 277.801 86.52 277.821 86.55 277.871C86.58 277.921 86.5901 277.991 86.5901 278.101V278.261C86.5901 278.371 86.58 278.441 86.55 278.491C86.52 278.541 86.4701 278.561 86.4001 278.561H84.98V284.601C84.98 284.751 84.8501 284.821 84.6001 284.821H84.4602C84.2102 284.821 84.0801 284.751 84.0801 284.601Z" fill="#29ABE2"/>
<path d="M20.4001 297.601V291.101C20.4001 290.991 20.4202 290.921 20.4602 290.871C20.5002 290.821 20.5702 290.801 20.6702 290.801H22.3201C22.7901 290.801 23.2101 290.941 23.5801 291.221C23.9501 291.501 24.1401 292.011 24.1401 292.761C24.1401 293.311 24.0301 293.741 23.8201 294.051C23.6101 294.361 23.3701 294.561 23.1101 294.671C22.8501 294.781 22.6101 294.831 22.4001 294.831H21.3V297.611C21.3 297.761 21.1702 297.831 20.9202 297.831H20.78C20.53 297.821 20.4001 297.751 20.4001 297.601ZM22.3501 294.061C22.5701 294.061 22.7702 293.961 22.9502 293.771C23.1302 293.581 23.22 293.241 23.22 292.761C23.22 292.311 23.1302 292.001 22.9502 291.821C22.7702 291.641 22.54 291.551 22.28 291.551H21.3V294.051H22.3501V294.061Z" fill="#29ABE2"/>
<path d="M26.51 297.601V291.101C26.51 290.991 26.5301 290.921 26.5801 290.871C26.6201 290.821 26.69 290.801 26.79 290.801H28.27C28.93 290.801 29.42 290.941 29.74 291.221C30.06 291.501 30.22 291.951 30.22 292.571C30.22 292.981 30.14 293.331 29.97 293.611C29.81 293.891 29.58 294.111 29.3 294.261V294.301C29.43 294.371 29.5501 294.501 29.6501 294.691C29.7501 294.881 29.86 295.171 29.99 295.551L30.6201 297.521C30.6401 297.581 30.6501 297.631 30.6501 297.661C30.6501 297.771 30.52 297.821 30.26 297.821H30.0901C30.0001 297.821 29.9201 297.811 29.8401 297.781C29.7601 297.751 29.73 297.711 29.72 297.661L29.1201 295.701C29.0001 295.321 28.8702 295.061 28.7102 294.921C28.5502 294.781 28.34 294.711 28.04 294.711H27.4102V297.591C27.4102 297.741 27.28 297.811 27.03 297.811H26.8901C26.6401 297.821 26.51 297.751 26.51 297.601ZM28.4102 293.961C28.6502 293.961 28.86 293.841 29.03 293.591C29.2 293.351 29.28 293.061 29.28 292.731C29.28 292.341 29.2 292.041 29.03 291.851C28.87 291.661 28.6401 291.561 28.3401 291.561H27.3901V293.961H28.4102Z" fill="#29ABE2"/>
<path d="M33.1501 296.971C32.7201 296.381 32.51 295.481 32.51 294.281C32.51 291.921 33.34 290.741 35.01 290.741C36.68 290.741 37.52 291.921 37.52 294.281C37.52 295.481 37.3101 296.381 36.8801 296.971C36.4501 297.561 35.83 297.861 35.01 297.861C34.2 297.861 33.5801 297.561 33.1501 296.971ZM36.6001 294.281C36.6001 292.431 36.07 291.501 35.02 291.501C34.49 291.501 34.1001 291.721 33.8401 292.171C33.5801 292.621 33.4402 293.321 33.4402 294.281C33.4402 296.161 33.97 297.101 35.02 297.101C36.07 297.101 36.6001 296.161 36.6001 294.281Z" fill="#29ABE2"/>
<path d="M40.3901 296.991C39.9701 296.411 39.76 295.521 39.76 294.291C39.76 293.081 39.9701 292.191 40.4001 291.611C40.8301 291.031 41.4901 290.731 42.3701 290.731C42.5601 290.731 42.7402 290.751 42.9202 290.781C43.1002 290.811 43.2501 290.861 43.3801 290.921C43.4501 290.951 43.49 290.981 43.51 291.021C43.53 291.061 43.55 291.121 43.55 291.191C43.55 291.301 43.52 291.431 43.47 291.581C43.42 291.731 43.34 291.771 43.24 291.721C42.96 291.581 42.6701 291.511 42.3701 291.511C41.8001 291.511 41.3701 291.731 41.1001 292.181C40.8301 292.631 40.6902 293.331 40.6902 294.281C40.6902 295.231 40.8301 295.941 41.1001 296.391C41.3701 296.841 41.7901 297.071 42.3601 297.071C42.7101 297.071 43.02 296.991 43.3 296.821C43.34 296.811 43.3701 296.801 43.3901 296.801C43.4801 296.801 43.5501 296.861 43.6001 296.981C43.6501 297.101 43.6802 297.211 43.6802 297.311C43.6802 297.381 43.6601 297.441 43.6301 297.491C43.6001 297.541 43.5302 297.591 43.4402 297.641C43.3302 297.691 43.17 297.741 42.98 297.791C42.79 297.831 42.5801 297.851 42.3701 297.851C41.4601 297.861 40.8101 297.571 40.3901 296.991Z" fill="#29ABE2"/>
<path d="M45.9602 297.731C45.9202 297.681 45.8901 297.611 45.8901 297.501V291.101C45.8901 290.991 45.9102 290.921 45.9602 290.871C46.0002 290.821 46.0702 290.801 46.1702 290.801H49.05C49.18 290.801 49.24 290.901 49.24 291.101V291.261C49.24 291.461 49.18 291.561 49.05 291.561H46.8V293.841H48.8201C48.9501 293.841 49.01 293.941 49.01 294.141V294.301C49.01 294.501 48.9501 294.601 48.8201 294.601H46.8V297.041H49.05C49.12 297.041 49.1702 297.061 49.1902 297.111C49.2202 297.161 49.23 297.231 49.23 297.341V297.501C49.23 297.611 49.2202 297.681 49.1902 297.731C49.1602 297.781 49.11 297.801 49.05 297.801H46.1702C46.0702 297.801 46.0002 297.771 45.9602 297.731Z" fill="#29ABE2"/>
<path d="M51.3501 297.391C51.3101 297.361 51.28 297.341 51.27 297.311C51.25 297.281 51.24 297.231 51.24 297.161C51.24 297.041 51.2601 296.911 51.3101 296.781C51.3601 296.651 51.41 296.591 51.48 296.591C51.51 296.591 51.53 296.601 51.54 296.611C51.55 296.621 51.5601 296.631 51.5701 296.631C51.9401 296.921 52.4002 297.061 52.9602 297.061C53.3002 297.061 53.58 296.961 53.8 296.761C54.02 296.561 54.1201 296.281 54.1201 295.941C54.1201 295.631 54.0301 295.381 53.8601 295.201C53.6901 295.021 53.4301 294.851 53.0901 294.681C52.7101 294.491 52.4102 294.321 52.1802 294.171C51.9502 294.021 51.7701 293.821 51.6201 293.581C51.4701 293.341 51.4001 293.031 51.4001 292.661C51.4001 292.051 51.59 291.581 51.98 291.231C52.36 290.881 52.86 290.701 53.48 290.701C53.95 290.701 54.3602 290.801 54.7002 291.001C54.7502 291.031 54.77 291.071 54.77 291.121C54.77 291.211 54.7402 291.331 54.6702 291.491C54.6102 291.651 54.55 291.731 54.49 291.731C54.47 291.731 54.4301 291.711 54.3601 291.681C54.1101 291.551 53.8002 291.491 53.4302 291.491C53.1102 291.491 52.8401 291.581 52.6201 291.761C52.4001 291.941 52.29 292.211 52.29 292.551C52.29 292.851 52.3801 293.091 52.5701 293.281C52.7501 293.461 53.0502 293.661 53.4602 293.871C53.8002 294.041 54.08 294.201 54.29 294.361C54.5 294.511 54.6701 294.711 54.8201 294.951C54.9601 295.191 55.03 295.501 55.03 295.871C55.03 296.501 54.8402 296.991 54.4502 297.331C54.0602 297.671 53.5602 297.861 52.9502 297.861C52.3002 297.851 51.7801 297.691 51.3501 297.391Z" fill="#29ABE2"/>
<path d="M56.97 297.391C56.93 297.361 56.9001 297.341 56.8901 297.311C56.8701 297.281 56.8701 297.231 56.8701 297.161C56.8701 297.041 56.8902 296.911 56.9302 296.781C56.9702 296.651 57.0301 296.591 57.1001 296.591C57.1301 296.591 57.1502 296.601 57.1602 296.611C57.1702 296.621 57.1802 296.631 57.1902 296.631C57.5602 296.921 58.0201 297.061 58.5801 297.061C58.9201 297.061 59.2002 296.961 59.4102 296.761C59.6202 296.561 59.74 296.281 59.74 295.941C59.74 295.631 59.65 295.381 59.48 295.201C59.31 295.021 59.0502 294.851 58.7102 294.681C58.3302 294.491 58.03 294.321 57.8 294.171C57.57 294.021 57.39 293.821 57.24 293.581C57.09 293.341 57.01 293.031 57.01 292.661C57.01 292.051 57.2001 291.581 57.5901 291.231C57.9701 290.881 58.4701 290.701 59.0901 290.701C59.5601 290.701 59.9701 290.801 60.3101 291.001C60.3601 291.031 60.3801 291.071 60.3801 291.121C60.3801 291.211 60.35 291.331 60.29 291.491C60.23 291.651 60.1701 291.731 60.1001 291.731C60.0801 291.731 60.04 291.711 59.97 291.681C59.72 291.551 59.41 291.491 59.04 291.491C58.72 291.491 58.45 291.581 58.23 291.761C58.01 291.941 57.9001 292.211 57.9001 292.551C57.9001 292.851 57.9902 293.091 58.1802 293.281C58.3602 293.461 58.6601 293.661 59.0701 293.871C59.4101 294.041 59.6901 294.201 59.9001 294.361C60.1101 294.511 60.2902 294.711 60.4302 294.951C60.5702 295.191 60.6401 295.501 60.6401 295.871C60.6401 296.501 60.4501 296.991 60.0601 297.331C59.6701 297.671 59.1701 297.861 58.5601 297.861C57.9201 297.851 57.4 297.691 56.97 297.391Z" fill="#29ABE2"/>
<path d="M66.9202 299.811C66.4002 299.311 65.9902 298.631 65.7002 297.771C65.4102 296.911 65.25 295.971 65.25 294.951C65.25 293.941 65.4002 293.001 65.7002 292.141C66.0002 291.281 66.4102 290.591 66.9202 290.081C66.9902 290.011 67.0601 289.981 67.1301 289.981C67.2001 289.981 67.2601 290.011 67.3301 290.061C67.4001 290.111 67.4302 290.171 67.4302 290.231C67.4302 290.311 67.4001 290.381 67.3401 290.451C66.9201 290.941 66.6001 291.571 66.3901 292.371C66.1701 293.161 66.0601 294.021 66.0601 294.951C66.0601 295.881 66.1701 296.741 66.3901 297.531C66.6101 298.321 66.9201 298.961 67.3301 299.451C67.3901 299.521 67.4202 299.591 67.4202 299.651C67.4202 299.701 67.3901 299.761 67.3301 299.831C67.2701 299.901 67.2101 299.931 67.1401 299.931C67.0701 299.921 66.9902 299.881 66.9202 299.811Z" fill="#29ABE2"/>
<path d="M69.6501 296.991C69.2301 296.411 69.02 295.521 69.02 294.291C69.02 293.081 69.2302 292.191 69.6602 291.611C70.0902 291.031 70.7401 290.731 71.6201 290.731C71.8101 290.731 71.9902 290.751 72.1702 290.781C72.3502 290.811 72.5001 290.861 72.6301 290.921C72.7001 290.951 72.74 290.981 72.76 291.021C72.78 291.061 72.8 291.121 72.8 291.191C72.8 291.301 72.77 291.431 72.72 291.581C72.67 291.731 72.59 291.771 72.49 291.721C72.21 291.581 71.9201 291.511 71.6201 291.511C71.0501 291.511 70.6201 291.731 70.3501 292.181C70.0801 292.631 69.9402 293.331 69.9402 294.281C69.9402 295.231 70.0701 295.941 70.3501 296.391C70.6201 296.841 71.0401 297.071 71.6101 297.071C71.9601 297.071 72.27 296.991 72.55 296.821C72.59 296.811 72.6201 296.801 72.6401 296.801C72.7301 296.801 72.8001 296.861 72.8501 296.981C72.9001 297.101 72.9302 297.211 72.9302 297.311C72.9302 297.381 72.9101 297.441 72.8801 297.491C72.8501 297.541 72.7802 297.591 72.6902 297.641C72.5802 297.691 72.42 297.741 72.23 297.791C72.04 297.831 71.8301 297.851 71.6201 297.851C70.7201 297.861 70.0701 297.571 69.6501 296.991Z" fill="#29ABE2"/>
<path d="M75.22 297.601V291.001C75.22 290.851 75.3501 290.781 75.6001 290.781H75.75C76 290.781 76.1201 290.851 76.1201 291.001V297.601C76.1201 297.751 76 297.821 75.75 297.821H75.6001C75.3501 297.821 75.22 297.751 75.22 297.601Z" fill="#29ABE2"/>
<path d="M78.9602 297.601V291.101C78.9602 290.991 78.98 290.921 79.02 290.871C79.06 290.821 79.13 290.801 79.23 290.801H80.8801C81.3501 290.801 81.7701 290.941 82.1401 291.221C82.5101 291.501 82.6902 292.011 82.6902 292.761C82.6902 293.311 82.5901 293.741 82.3801 294.051C82.1701 294.361 81.9302 294.561 81.6702 294.671C81.4102 294.771 81.1702 294.831 80.9602 294.831H79.8601V297.611C79.8601 297.761 79.73 297.831 79.48 297.831H79.3401C79.0901 297.821 78.9602 297.751 78.9602 297.601ZM80.9102 294.061C81.1302 294.061 81.33 293.961 81.51 293.771C81.69 293.581 81.78 293.241 81.78 292.761C81.78 292.311 81.69 292.001 81.51 291.821C81.33 291.641 81.1001 291.551 80.8401 291.551H79.8601V294.051H80.9102V294.061Z" fill="#29ABE2"/>
<path d="M84.23 299.821C84.17 299.761 84.1401 299.701 84.1401 299.631C84.1401 299.581 84.17 299.531 84.22 299.461C84.64 298.971 84.9602 298.331 85.1802 297.541C85.4002 296.741 85.51 295.871 85.51 294.931C85.51 293.991 85.4002 293.131 85.1802 292.341C84.9602 291.551 84.64 290.921 84.22 290.431C84.16 290.351 84.1301 290.281 84.1301 290.221C84.1301 290.161 84.16 290.101 84.23 290.051C84.3 289.991 84.3602 289.961 84.4302 289.961C84.5002 289.961 84.5701 289.991 84.6401 290.061C85.1601 290.561 85.5701 291.241 85.8701 292.101C86.1701 292.961 86.3101 293.911 86.3101 294.931C86.3101 295.941 86.1601 296.881 85.8601 297.741C85.5601 298.601 85.1501 299.291 84.6401 299.801C84.5701 299.871 84.4902 299.911 84.4202 299.911C84.3602 299.921 84.3 299.891 84.23 299.821Z" fill="#29ABE2"/>
<path d="M13.53 52.9305C13.49 52.8805 13.47 52.8106 13.47 52.7006V46.3005C13.47 46.1905 13.49 46.1206 13.53 46.0706C13.57 46.0206 13.64 46.0006 13.74 46.0006H15.4202C17.0902 46.0006 17.9302 47.1706 17.9302 49.5006C17.9302 51.8306 17.0902 53.0006 15.4202 53.0006H13.74C13.65 53.0006 13.58 52.9705 13.53 52.9305ZM15.4001 52.2406C15.9001 52.2406 16.2901 52.0206 16.5801 51.5806C16.8701 51.1406 17.01 50.4506 17.01 49.5006C17.01 48.5506 16.8701 47.8605 16.5801 47.4205C16.2901 46.9805 15.9001 46.7606 15.4001 46.7606H14.3801V52.2406H15.4001Z" fill="#29ABE2"/>
<path d="M20.05 52.8506C20.05 52.8306 20.0601 52.7906 20.0701 52.7206L21.8801 46.1705C21.9201 46.0405 22.05 45.9806 22.28 45.9806H22.6001C22.8401 45.9806 22.97 46.0405 23 46.1705L24.8101 52.7206C24.8301 52.7706 24.8401 52.8106 24.8401 52.8506C24.8401 52.9006 24.81 52.9406 24.75 52.9706C24.69 53.0006 24.59 53.0106 24.47 53.0106H24.3C24.09 53.0106 23.9702 52.9606 23.9402 52.8506L23.51 51.2106H21.3601L20.9402 52.8506C20.9102 52.9606 20.7901 53.0106 20.5801 53.0106H20.4202C20.1702 53.0206 20.05 52.9606 20.05 52.8506ZM23.29 50.4606L22.5801 47.7206C22.5601 47.6306 22.52 47.4306 22.47 47.1106H22.4202C22.4102 47.1606 22.3901 47.2306 22.3801 47.3406L22.3 47.7206L21.5901 50.4606H23.29Z" fill="#29ABE2"/>
<path d="M28.04 52.8005V46.7606H26.6001C26.4701 46.7606 26.4102 46.6606 26.4102 46.4606V46.3005C26.4102 46.1005 26.4701 46.0006 26.6001 46.0006H30.3601C30.4301 46.0006 30.48 46.0206 30.51 46.0706C30.54 46.1206 30.55 46.1905 30.55 46.3005V46.4606C30.55 46.5706 30.54 46.6406 30.51 46.6906C30.48 46.7406 30.4301 46.7606 30.3601 46.7606H28.9402V52.8005C28.9402 52.9505 28.8101 53.0206 28.5601 53.0206H28.4202C28.1702 53.0206 28.04 52.9405 28.04 52.8005Z" fill="#29ABE2"/>
<path d="M32.1201 52.8506C32.1201 52.8306 32.1301 52.7906 32.1401 52.7206L33.9502 46.1705C33.9902 46.0405 34.1201 45.9806 34.3501 45.9806H34.6702C34.9102 45.9806 35.0401 46.0405 35.0701 46.1705L36.8801 52.7206C36.9001 52.7706 36.9102 52.8106 36.9102 52.8506C36.9102 52.9006 36.8801 52.9406 36.8201 52.9706C36.7601 53.0006 36.66 53.0106 36.54 53.0106H36.3701C36.1601 53.0106 36.04 52.9606 36.01 52.8506L35.5801 51.2106H33.4302L33.01 52.8506C32.98 52.9606 32.8601 53.0106 32.6501 53.0106H32.49C32.24 53.0206 32.1201 52.9606 32.1201 52.8506ZM35.3601 50.4606L34.6501 47.7206C34.6301 47.6306 34.59 47.4306 34.54 47.1106H34.49C34.48 47.1606 34.4602 47.2306 34.4502 47.3406L34.3701 47.7206L33.6602 50.4606H35.3601Z" fill="#29ABE2"/>
<path d="M0.580078 65.5305C0.190078 65.1805 0 64.6805 0 64.0505V59.2006C0 59.0506 0.130127 58.9806 0.380127 58.9806H0.52002C0.77002 58.9806 0.900146 59.0506 0.900146 59.2006V64.0806C0.900146 64.4406 1.02003 64.7306 1.28003 64.9606C1.54003 65.1906 1.84999 65.3005 2.23999 65.3005C2.62999 65.3005 2.9502 65.1806 3.2002 64.9606C3.4502 64.7306 3.58008 64.4406 3.58008 64.0806V59.2006C3.58008 59.0506 3.71021 58.9806 3.96021 58.9806H4.1001C4.3501 58.9806 4.47998 59.0506 4.47998 59.2006V64.0505C4.47998 64.6805 4.29015 65.1805 3.90015 65.5305C3.51015 65.8805 2.96 66.0605 2.25 66.0605C1.54 66.0605 0.970078 65.8805 0.580078 65.5305Z" fill="#29ABE2"/>
<path d="M7.08008 65.5906C7.04008 65.5606 7.01 65.5406 7 65.5106C6.99 65.4806 6.97998 65.4306 6.97998 65.3606C6.97998 65.2406 7.00004 65.1206 7.04004 64.9806C7.08004 64.8506 7.14021 64.7905 7.21021 64.7905C7.24021 64.7905 7.26002 64.8005 7.27002 64.8105C7.28002 64.8205 7.29005 64.8306 7.30005 64.8306C7.67005 65.1206 8.13019 65.2606 8.69019 65.2606C9.03019 65.2606 9.31002 65.1606 9.52002 64.9606C9.73002 64.7606 9.8501 64.4806 9.8501 64.1306C9.8501 63.8206 9.76009 63.5706 9.59009 63.3906C9.42009 63.2106 9.16007 63.0406 8.82007 62.8706C8.44007 62.6806 8.14016 62.5106 7.91016 62.3606C7.69016 62.2106 7.5001 62.0106 7.3501 61.7706C7.2001 61.5306 7.12012 61.2206 7.12012 60.8506C7.12012 60.2406 7.3102 59.7705 7.7002 59.4205C8.0802 59.0705 8.5802 58.8906 9.2002 58.8906C9.6702 58.8906 10.0802 58.9906 10.4202 59.1906C10.4702 59.2206 10.49 59.2605 10.49 59.3105C10.49 59.4005 10.4601 59.5205 10.4001 59.6805C10.3401 59.8405 10.2802 59.9205 10.2102 59.9205C10.1902 59.9205 10.1501 59.9006 10.0801 59.8706C9.83008 59.7406 9.52015 59.6805 9.15015 59.6805C8.83015 59.6805 8.56009 59.7706 8.34009 59.9606C8.12009 60.1406 8.01001 60.4106 8.01001 60.7506C8.01001 61.0506 8.10004 61.2906 8.29004 61.4706C8.48004 61.6506 8.77018 61.8505 9.18018 62.0605C9.52018 62.2305 9.80001 62.3905 10.01 62.5505C10.22 62.7105 10.4 62.9006 10.54 63.1406C10.68 63.3806 10.75 63.6905 10.75 64.0605C10.75 64.6905 10.5602 65.1806 10.1702 65.5206C9.78017 65.8706 9.28017 66.0505 8.67017 66.0505C8.03017 66.0505 7.51008 65.8906 7.08008 65.5906Z" fill="#29ABE2"/>
<path d="M13.3801 65.9305C13.3401 65.8805 13.3101 65.8106 13.3101 65.7006V59.3005C13.3101 59.1905 13.3301 59.1206 13.3801 59.0706C13.4201 59.0206 13.4901 59.0006 13.5801 59.0006H16.4602C16.5902 59.0006 16.6501 59.1005 16.6501 59.3005V59.4606C16.6501 59.6606 16.5902 59.7606 16.4602 59.7606H14.2102V62.0405H16.23C16.36 62.0405 16.4202 62.1406 16.4202 62.3406V62.5006C16.4202 62.7006 16.36 62.8005 16.23 62.8005H14.2102V65.2406H16.4602C16.5302 65.2406 16.5701 65.2605 16.6001 65.3105C16.6301 65.3605 16.6401 65.4305 16.6401 65.5405V65.7006C16.6401 65.8106 16.6301 65.8805 16.6001 65.9305C16.5701 65.9805 16.5202 66.0006 16.4602 66.0006H13.5801C13.4901 66.0006 13.4201 65.9705 13.3801 65.9305Z" fill="#29ABE2"/>
<path d="M22.5801 65.1906C22.1601 64.6106 21.9502 63.7206 21.9502 62.5006C21.9502 61.2906 22.1601 60.4005 22.5901 59.8105C23.0201 59.2305 23.67 58.9305 24.55 58.9305C24.74 58.9305 24.9201 58.9506 25.1001 58.9806C25.2801 59.0106 25.4301 59.0606 25.5601 59.1206C25.6301 59.1506 25.6702 59.1806 25.6902 59.2206C25.7102 59.2606 25.73 59.3206 25.73 59.3906C25.73 59.5006 25.7001 59.6305 25.6501 59.7805C25.6001 59.9305 25.5202 59.9705 25.4202 59.9205C25.1402 59.7805 24.85 59.7106 24.55 59.7106C23.98 59.7106 23.55 59.9306 23.28 60.3806C23.01 60.8306 22.8701 61.5306 22.8701 62.4806C22.8701 63.4306 23 64.1406 23.28 64.5906C23.55 65.0406 23.97 65.2706 24.54 65.2706C24.89 65.2706 25.2 65.1906 25.48 65.0206C25.52 65.0106 25.5501 65.0006 25.5701 65.0006C25.6601 65.0006 25.73 65.0605 25.78 65.1705C25.83 65.2905 25.8601 65.4006 25.8601 65.5006C25.8601 65.5706 25.8401 65.6305 25.8101 65.6805C25.7801 65.7305 25.7101 65.7806 25.6201 65.8306C25.5101 65.8806 25.3502 65.9306 25.1602 65.9806C24.9702 66.0206 24.76 66.0405 24.55 66.0405C23.66 66.0605 23.0101 65.7706 22.5801 65.1906Z" fill="#29ABE2"/>
<path d="M27.6802 65.8506C27.6802 65.8306 27.6902 65.7906 27.7002 65.7206L29.51 59.1705C29.55 59.0405 29.6802 58.9806 29.9102 58.9806H30.23C30.47 58.9806 30.6001 59.0405 30.6301 59.1705L32.4402 65.7206C32.4602 65.7706 32.47 65.8106 32.47 65.8506C32.47 65.9006 32.4401 65.9406 32.3801 65.9706C32.3201 66.0006 32.2201 66.0106 32.1001 66.0106H31.9302C31.7202 66.0106 31.6001 65.9606 31.5701 65.8506L31.1401 64.2106H28.99L28.5701 65.8506C28.5401 65.9606 28.4202 66.0106 28.2102 66.0106H28.05C27.8 66.0206 27.6802 65.9606 27.6802 65.8506ZM30.9202 63.4606L30.2102 60.7206C30.1902 60.6306 30.1501 60.4306 30.1001 60.1106H30.05C30.04 60.1606 30.02 60.2306 30.01 60.3406L29.9302 60.7206L29.22 63.4606H30.9202Z" fill="#29ABE2"/>
<path d="M34.53 65.5906C34.49 65.5606 34.4602 65.5406 34.4502 65.5106C34.4402 65.4806 34.4302 65.4306 34.4302 65.3606C34.4302 65.2406 34.45 65.1206 34.49 64.9806C34.53 64.8506 34.5902 64.7905 34.6602 64.7905C34.6902 64.7905 34.71 64.8005 34.72 64.8105C34.73 64.8205 34.74 64.8306 34.75 64.8306C35.12 65.1206 35.5801 65.2606 36.1401 65.2606C36.4801 65.2606 36.76 65.1606 36.97 64.9606C37.18 64.7606 37.3 64.4806 37.3 64.1306C37.3 63.8206 37.21 63.5706 37.04 63.3906C36.87 63.2106 36.61 63.0406 36.27 62.8706C35.89 62.6806 35.5901 62.5106 35.3601 62.3606C35.1401 62.2106 34.95 62.0106 34.8 61.7706C34.65 61.5306 34.5701 61.2206 34.5701 60.8506C34.5701 60.2406 34.7601 59.7705 35.1501 59.4205C35.5301 59.0705 36.0301 58.8906 36.6501 58.8906C37.1201 58.8906 37.5301 58.9906 37.8701 59.1906C37.9201 59.2206 37.9402 59.2605 37.9402 59.3105C37.9402 59.4005 37.9101 59.5205 37.8501 59.6805C37.7901 59.8405 37.7302 59.9205 37.6602 59.9205C37.6402 59.9205 37.6 59.9006 37.53 59.8706C37.28 59.7406 36.9701 59.6805 36.6001 59.6805C36.2801 59.6805 36.01 59.7706 35.79 59.9606C35.57 60.1406 35.4602 60.4106 35.4602 60.7506C35.4602 61.0506 35.55 61.2906 35.74 61.4706C35.93 61.6506 36.2201 61.8505 36.6301 62.0605C36.9701 62.2305 37.2502 62.3905 37.4602 62.5505C37.6702 62.7105 37.85 62.9006 37.99 63.1406C38.13 63.3806 38.2002 63.6905 38.2002 64.0605C38.2002 64.6905 38.0101 65.1806 37.6201 65.5206C37.2301 65.8706 36.7301 66.0505 36.1201 66.0505C35.4801 66.0505 34.96 65.8906 34.53 65.5906Z" fill="#29ABE2"/>
<path d="M40.8201 65.9305C40.7801 65.8805 40.75 65.8106 40.75 65.7006V59.3005C40.75 59.1905 40.7701 59.1206 40.8201 59.0706C40.8601 59.0206 40.93 59.0006 41.02 59.0006H43.9001C44.0301 59.0006 44.0901 59.1005 44.0901 59.3005V59.4606C44.0901 59.6606 44.0301 59.7606 43.9001 59.7606H41.6501V62.0405H43.6702C43.8002 62.0405 43.8601 62.1406 43.8601 62.3406V62.5006C43.8601 62.7006 43.8002 62.8005 43.6702 62.8005H41.6501V65.2406H43.9001C43.9701 65.2406 44.01 65.2605 44.04 65.3105C44.07 65.3605 44.0801 65.4305 44.0801 65.5405V65.7006C44.0801 65.8106 44.07 65.8805 44.04 65.9305C44.01 65.9805 43.9601 66.0006 43.9001 66.0006H41.02C40.94 66.0006 40.8701 65.9705 40.8201 65.9305Z" fill="#29ABE2"/>
<path d="M46.47 65.5906C46.43 65.5606 46.4001 65.5406 46.3901 65.5106C46.3801 65.4806 46.3701 65.4306 46.3701 65.3606C46.3701 65.2406 46.3902 65.1206 46.4302 64.9806C46.4702 64.8506 46.5301 64.7905 46.6001 64.7905C46.6301 64.7905 46.6502 64.8005 46.6602 64.8105C46.6702 64.8205 46.6802 64.8306 46.6902 64.8306C47.0602 65.1206 47.5201 65.2606 48.0801 65.2606C48.4201 65.2606 48.7002 65.1606 48.9102 64.9606C49.1202 64.7606 49.24 64.4806 49.24 64.1306C49.24 63.8206 49.15 63.5706 48.98 63.3906C48.81 63.2106 48.5502 63.0406 48.2102 62.8706C47.8302 62.6806 47.53 62.5106 47.3 62.3606C47.08 62.2106 46.89 62.0106 46.74 61.7706C46.59 61.5306 46.51 61.2206 46.51 60.8506C46.51 60.2406 46.7001 59.7705 47.0901 59.4205C47.4701 59.0705 47.9701 58.8906 48.5901 58.8906C49.0601 58.8906 49.4701 58.9906 49.8101 59.1906C49.8601 59.2206 49.8801 59.2605 49.8801 59.3105C49.8801 59.4005 49.85 59.5205 49.79 59.6805C49.73 59.8405 49.6701 59.9205 49.6001 59.9205C49.5801 59.9205 49.54 59.9006 49.47 59.8706C49.22 59.7406 48.91 59.6805 48.54 59.6805C48.22 59.6805 47.95 59.7706 47.73 59.9606C47.51 60.1406 47.4001 60.4106 47.4001 60.7506C47.4001 61.0506 47.4902 61.2906 47.6802 61.4706C47.8702 61.6506 48.1601 61.8505 48.5701 62.0605C48.9101 62.2305 49.1901 62.3905 49.4001 62.5505C49.6101 62.7105 49.7902 62.9006 49.9302 63.1406C50.0702 63.3806 50.1401 63.6905 50.1401 64.0605C50.1401 64.6905 49.9501 65.1806 49.5601 65.5206C49.1701 65.8706 48.6701 66.0505 48.0601 66.0505C47.4201 66.0505 46.9 65.8906 46.47 65.5906Z" fill="#29ABE2"/>
<path d="M245.13 245.681C250.498 245.681 254.85 241.329 254.85 235.961C254.85 230.592 250.498 226.241 245.13 226.241C239.762 226.241 235.41 230.592 235.41 235.961C235.41 241.329 239.762 245.681 245.13 245.681Z" stroke="#29ABE2" stroke-width="2" stroke-miterlimit="10"/>
<g opacity="0.5">
<path opacity="0.5" d="M253.41 216.801L273.26 204.171C265.15 205.761 258.13 210.381 253.41 216.801Z" fill="#29ABE2"/>
<path opacity="0.5" d="M299.58 210.521C298.77 209.881 297.93 209.281 297.06 208.721L260.05 232.261C260.3 233.271 260.45 234.311 260.49 235.381L299.58 210.521Z" fill="#29ABE2"/>
<path opacity="0.5" d="M256.94 226.101L289.76 205.221C288.54 204.811 287.28 204.471 286 204.211L254.84 224.031C255.61 224.651 256.31 225.341 256.94 226.101Z" fill="#29ABE2"/>
<path opacity="0.5" d="M283 203.751C281.86 203.631 280.7 203.561 279.53 203.561C278.98 203.561 278.43 203.571 277.88 203.601L250.92 220.751C250.78 221.011 250.66 221.291 250.53 221.561C251.42 221.891 252.26 222.301 253.06 222.791L283 203.751Z" fill="#29ABE2"/>
<path opacity="0.5" d="M295.15 207.571C294.17 207.031 293.16 206.541 292.12 206.101L258.12 227.731C258.63 228.541 259.08 229.391 259.43 230.301L295.15 207.571Z" fill="#29ABE2"/>
<path opacity="0.5" d="M279.54 268.361C280.14 268.361 280.74 268.341 281.33 268.311L308.09 251.291C308.9 249.791 309.59 248.211 310.15 246.581L276.17 268.191C277.28 268.301 278.4 268.361 279.54 268.361Z" fill="#29ABE2"/>
<path opacity="0.5" d="M309.58 223.841L255.83 258.031C256.5 258.751 257.2 259.441 257.93 260.091L310.56 226.611C310.28 225.681 309.95 224.751 309.58 223.841Z" fill="#29ABE2"/>
<path opacity="0.5" d="M303.29 213.931C302.62 213.211 301.92 212.521 301.19 211.861L260.41 237.801C260.25 239.211 259.92 240.571 259.42 241.831L303.29 213.931Z" fill="#29ABE2"/>
<path opacity="0.5" d="M273.16 267.731L311.01 243.651C311.32 242.401 311.55 241.111 311.7 239.811L269.39 266.731C270.61 267.131 271.87 267.471 273.16 267.731Z" fill="#29ABE2"/>
<path opacity="0.5" d="M305.55 255.271L285.98 267.721C293.96 266.111 300.87 261.571 305.55 255.271Z" fill="#29ABE2"/>
<path opacity="0.5" d="M311.87 233.941L263.99 264.401C264.97 264.941 265.99 265.431 267.03 265.871L311.9 237.331C311.92 236.881 311.93 236.431 311.93 235.981C311.93 235.281 311.91 234.611 311.87 233.941Z" fill="#29ABE2"/>
<path opacity="0.5" d="M307.41 219.451L252.76 254.211C253.3 255.001 253.88 255.771 254.49 256.511L308.77 221.981C308.36 221.121 307.9 220.281 307.41 219.451Z" fill="#29ABE2"/>
<path opacity="0.5" d="M311.1 228.651L259.55 261.451C260.36 262.091 261.2 262.691 262.07 263.241L311.65 231.701C311.51 230.671 311.33 229.651 311.1 228.651Z" fill="#29ABE2"/>
<path opacity="0.5" d="M306.34 217.761C305.8 216.971 305.22 216.201 304.62 215.451L257.32 245.541C255.6 247.781 253.28 249.511 250.57 250.471C250.92 251.171 251.29 251.851 251.69 252.521L306.34 217.761Z" fill="#29ABE2"/>
</g>
<path d="M254.62 289.001V282.401C254.62 282.251 254.75 282.181 255 282.181H255.15C255.4 282.181 255.52 282.251 255.52 282.401V289.001C255.52 289.151 255.4 289.221 255.15 289.221H255C254.74 289.221 254.62 289.151 254.62 289.001Z" fill="#29ABE2"/>
<path d="M260.2 286.681L259.03 284.381C258.94 284.191 258.84 283.961 258.73 283.691L258.69 283.711C258.72 283.981 258.74 284.211 258.74 284.421V289.001C258.74 289.151 258.61 289.221 258.36 289.221H258.24C257.99 289.221 257.86 289.151 257.86 289.001V282.401C257.86 282.251 257.99 282.181 258.24 282.181H258.45C258.64 282.181 258.77 282.241 258.83 282.361L260.43 285.491C260.5 285.641 260.56 285.801 260.59 285.971C260.62 285.801 260.68 285.641 260.75 285.491L262.35 282.361C262.41 282.241 262.54 282.181 262.73 282.181H262.94C263.19 282.181 263.32 282.251 263.32 282.401V289.001C263.32 289.151 263.19 289.221 262.94 289.221H262.82C262.57 289.221 262.44 289.151 262.44 289.001V284.421C262.44 284.211 262.46 283.981 262.49 283.711L262.45 283.691C262.34 283.961 262.24 284.191 262.15 284.381L260.98 286.681C260.94 286.771 260.87 286.811 260.76 286.811H260.42C260.31 286.811 260.24 286.771 260.2 286.681Z" fill="#29ABE2"/>
<path d="M265.5 289.001V282.501C265.5 282.391 265.52 282.321 265.56 282.271C265.6 282.221 265.67 282.201 265.77 282.201H267.42C267.89 282.201 268.31 282.341 268.68 282.621C269.05 282.901 269.23 283.411 269.23 284.161C269.23 284.711 269.13 285.141 268.92 285.451C268.71 285.761 268.47 285.961 268.21 286.071C267.95 286.171 267.71 286.231 267.5 286.231H266.4V289.011C266.4 289.161 266.27 289.231 266.02 289.231H265.88C265.62 289.221 265.5 289.151 265.5 289.001ZM267.45 285.461C267.67 285.461 267.87 285.361 268.05 285.171C268.23 284.981 268.32 284.641 268.32 284.161C268.32 283.711 268.23 283.401 268.05 283.231C267.87 283.051 267.64 282.961 267.38 282.961H266.4V285.461H267.45Z" fill="#29ABE2"/>
<path d="M271.18 289.131C271.14 289.081 271.12 289.011 271.12 288.901V282.401C271.12 282.251 271.25 282.181 271.5 282.181H271.64C271.89 282.181 272.02 282.251 272.02 282.401V288.441H274.1C274.17 288.441 274.22 288.461 274.26 288.511C274.3 288.561 274.3 288.631 274.3 288.741V288.901C274.3 289.011 274.29 289.081 274.26 289.131C274.23 289.181 274.18 289.201 274.1 289.201H271.39C271.29 289.201 271.22 289.171 271.18 289.131Z" fill="#29ABE2"/>
<path d="M275.92 289.131C275.88 289.081 275.85 289.011 275.85 288.901V282.501C275.85 282.391 275.87 282.321 275.92 282.271C275.96 282.221 276.03 282.201 276.12 282.201H279C279.13 282.201 279.19 282.301 279.19 282.501V282.661C279.19 282.861 279.13 282.961 279 282.961H276.75V285.241H278.77C278.9 285.241 278.96 285.341 278.96 285.541V285.701C278.96 285.901 278.9 286.001 278.77 286.001H276.75V288.441H279C279.07 288.441 279.11 288.461 279.14 288.511C279.17 288.561 279.18 288.631 279.18 288.741V288.901C279.18 289.011 279.17 289.081 279.14 289.131C279.11 289.181 279.06 289.201 279 289.201H276.12C276.03 289.201 275.96 289.171 275.92 289.131Z" fill="#29ABE2"/>
<path d="M283.46 286.681L282.29 284.381C282.2 284.191 282.1 283.961 281.99 283.691L281.95 283.711C281.98 283.981 282 284.211 282 284.421V289.001C282 289.151 281.87 289.221 281.62 289.221H281.5C281.25 289.221 281.12 289.151 281.12 289.001V282.401C281.12 282.251 281.25 282.181 281.5 282.181H281.71C281.9 282.181 282.03 282.241 282.09 282.361L283.69 285.491C283.76 285.641 283.82 285.801 283.85 285.971C283.88 285.801 283.94 285.641 284.01 285.491L285.61 282.361C285.67 282.241 285.8 282.181 285.99 282.181H286.2C286.45 282.181 286.58 282.251 286.58 282.401V289.001C286.58 289.151 286.45 289.221 286.2 289.221H286.08C285.83 289.221 285.7 289.151 285.7 289.001V284.421C285.7 284.211 285.72 283.981 285.75 283.711L285.71 283.691C285.6 283.961 285.5 284.191 285.41 284.381L284.24 286.681C284.2 286.771 284.13 286.811 284.02 286.811H283.68C283.57 286.811 283.5 286.771 283.46 286.681Z" fill="#29ABE2"/>
<path d="M288.88 289.131C288.84 289.081 288.81 289.011 288.81 288.901V282.501C288.81 282.391 288.83 282.321 288.88 282.271C288.92 282.221 288.99 282.201 289.08 282.201H291.96C292.09 282.201 292.15 282.301 292.15 282.501V282.661C292.15 282.861 292.09 282.961 291.96 282.961H289.71V285.241H291.73C291.86 285.241 291.92 285.341 291.92 285.541V285.701C291.92 285.901 291.86 286.001 291.73 286.001H289.71V288.441H291.96C292.03 288.441 292.07 288.461 292.1 288.511C292.13 288.561 292.14 288.631 292.14 288.741V288.901C292.14 289.011 292.13 289.081 292.1 289.131C292.07 289.181 292.02 289.201 291.96 289.201H289.08C288.99 289.201 288.92 289.171 288.88 289.131Z" fill="#29ABE2"/>
<path d="M294.08 289.001V282.401C294.08 282.251 294.21 282.181 294.46 282.181H294.7C294.8 282.181 294.88 282.191 294.94 282.221C295 282.251 295.05 282.301 295.09 282.381L297.41 286.851C297.5 287.021 297.59 287.231 297.67 287.481L297.72 287.461C297.67 287.231 297.64 287.011 297.64 286.801V282.401C297.64 282.251 297.77 282.181 298.02 282.181H298.14C298.39 282.181 298.52 282.251 298.52 282.401V289.001C298.52 289.151 298.39 289.221 298.14 289.221H297.93C297.74 289.221 297.62 289.171 297.57 289.071L295.19 284.451C295.1 284.281 295.01 284.071 294.93 283.821L294.88 283.841C294.93 284.071 294.96 284.291 294.96 284.501V289.001C294.96 289.151 294.83 289.221 294.58 289.221H294.46C294.2 289.221 294.08 289.151 294.08 289.001Z" fill="#29ABE2"/>
<path d="M301.83 289.001V282.961H300.39C300.26 282.961 300.2 282.861 300.2 282.661V282.501C300.2 282.301 300.26 282.201 300.39 282.201H304.15C304.22 282.201 304.27 282.221 304.3 282.271C304.33 282.321 304.34 282.391 304.34 282.501V282.661C304.34 282.771 304.33 282.841 304.3 282.891C304.27 282.941 304.22 282.961 304.15 282.961H302.73V289.001C302.73 289.151 302.6 289.221 302.35 289.221H302.21C301.95 289.221 301.83 289.151 301.83 289.001Z" fill="#29ABE2"/>
<path d="M305.16 289.051C305.16 289.031 305.17 288.991 305.18 288.921L306.99 282.371C307.03 282.241 307.16 282.181 307.39 282.181H307.71C307.95 282.181 308.08 282.241 308.11 282.371L309.92 288.921C309.94 288.971 309.95 289.011 309.95 289.051C309.95 289.101 309.92 289.141 309.86 289.171C309.8 289.201 309.7 289.211 309.58 289.211H309.41C309.2 289.211 309.08 289.161 309.05 289.051L308.62 287.411H306.47L306.05 289.051C306.02 289.161 305.9 289.211 305.69 289.211H305.53C305.28 289.221 305.16 289.161 305.16 289.051ZM308.4 286.661L307.69 283.921C307.67 283.831 307.63 283.631 307.58 283.311H307.53C307.52 283.361 307.5 283.431 307.49 283.541L307.41 283.921L306.7 286.661H308.4Z" fill="#29ABE2"/>
<path d="M312.4 289.001V282.961H310.96C310.83 282.961 310.77 282.861 310.77 282.661V282.501C310.77 282.301 310.83 282.201 310.96 282.201H314.72C314.79 282.201 314.84 282.221 314.87 282.271C314.9 282.321 314.91 282.391 314.91 282.501V282.661C314.91 282.771 314.9 282.841 314.87 282.891C314.84 282.941 314.79 282.961 314.72 282.961H313.3V289.001C313.3 289.151 313.17 289.221 312.92 289.221H312.78C312.52 289.221 312.4 289.151 312.4 289.001Z" fill="#29ABE2"/>
<path d="M316.72 289.001V282.401C316.72 282.251 316.85 282.181 317.1 282.181H317.25C317.5 282.181 317.62 282.251 317.62 282.401V289.001C317.62 289.151 317.5 289.221 317.25 289.221H317.1C316.84 289.221 316.72 289.151 316.72 289.001Z" fill="#29ABE2"/>
<path d="M320.36 288.371C319.93 287.781 319.72 286.881 319.72 285.681C319.72 283.321 320.55 282.141 322.22 282.141C323.89 282.141 324.73 283.321 324.73 285.681C324.73 286.881 324.52 287.781 324.09 288.371C323.66 288.961 323.04 289.261 322.22 289.261C321.4 289.261 320.78 288.961 320.36 288.371ZM323.81 285.681C323.81 283.831 323.28 282.901 322.23 282.901C321.7 282.901 321.31 283.121 321.05 283.571C320.79 284.021 320.65 284.721 320.65 285.681C320.65 287.561 321.18 288.501 322.23 288.501C323.28 288.501 323.81 287.561 323.81 285.681Z" fill="#29ABE2"/>
<path d="M326.7 289.001V282.401C326.7 282.251 326.83 282.181 327.08 282.181H327.32C327.42 282.181 327.5 282.191 327.56 282.221C327.62 282.251 327.67 282.301 327.71 282.381L330.03 286.851C330.12 287.021 330.21 287.231 330.29 287.481L330.34 287.461C330.29 287.231 330.26 287.011 330.26 286.801V282.401C330.26 282.251 330.39 282.181 330.64 282.181H330.76C331.01 282.181 331.14 282.251 331.14 282.401V289.001C331.14 289.151 331.01 289.221 330.76 289.221H330.55C330.36 289.221 330.24 289.171 330.19 289.071L327.81 284.451C327.72 284.281 327.63 284.071 327.55 283.821L327.5 283.841C327.55 284.071 327.58 284.291 327.58 284.501V289.001C327.58 289.151 327.45 289.221 327.2 289.221H327.08C326.82 289.221 326.7 289.151 326.7 289.001Z" fill="#29ABE2"/>
</svg>
